<?xml version="1.0" encoding="UTF-8" standalone="no"?>
<svg
   xmlns:dc="http://purl.org/dc/elements/1.1/"
   xmlns:cc="http://creativecommons.org/ns#"
   xmlns:rdf="http://www.w3.org/1999/02/22-rdf-syntax-ns#"
   xmlns:svg="http://www.w3.org/2000/svg"
   xmlns="http://www.w3.org/2000/svg"
   xmlns:sodipodi="http://sodipodi.sourceforge.net/DTD/sodipodi-0.dtd"
   xmlns:inkscape="http://www.inkscape.org/namespaces/inkscape"
   version="1.0"
   width="2737.3491"
   height="1727.6071"
   xml:space="preserve"
   id="svg4310"
   sodipodi:docname="Oxytocin_Cuddle me_2.svg"
   inkscape:version="0.92.4 (5da689c313, 2019-01-14)"><metadata
   id="metadata4316"><rdf:RDF><cc:Work
       rdf:about=""><dc:format>image/svg+xml</dc:format><dc:type
         rdf:resource="http://purl.org/dc/dcmitype/StillImage" /><dc:title></dc:title></cc:Work></rdf:RDF></metadata><defs
   id="defs4314" /><sodipodi:namedview
   pagecolor="#ffffff"
   bordercolor="#666666"
   borderopacity="1"
   objecttolerance="10"
   gridtolerance="10"
   guidetolerance="10"
   inkscape:pageopacity="0"
   inkscape:pageshadow="2"
   inkscape:window-width="1280"
   inkscape:window-height="755"
   id="namedview4312"
   showgrid="false"
   showguides="false"
   inkscape:zoom="0.45186542"
   inkscape:cx="1913.7291"
   inkscape:cy="899.48007"
   inkscape:window-x="0"
   inkscape:window-y="1"
   inkscape:window-maximized="1"
   inkscape:current-layer="flowRoot4400" />
<g
   transform="translate(59.205646,33.922277)"
   id="g4308">
<path
   d="m 2141.621,1125.305 3.007,1.504 v 3.496 l -124.511,72.002 v -7.002 z"
   id="polygon4044"
   inkscape:connector-curvature="0" />
<path
   d="M 8.0078125,0 V -71.582031 H 17.480469 V -42.1875 H 54.6875 v -29.394531 h 9.472656 V 0 H 54.6875 V -33.740234 H 17.480469 V 0 Z M 79.882813,0 v -71.582031 h 9.716796 l 37.597661,56.201172 v -56.201172 h 9.08203 V 0 h -9.7168 L 88.964844,-56.25 V 0 Z"
   transform="translate(2035.123,1021.809)"
   id="path4046"
   inkscape:connector-curvature="0" />
<path
   d="m 2141.621,1037.805 h 5.996 v 87.5 l -2.989,1.504 -3.007,-1.504 z"
   id="polygon4048"
   inkscape:connector-curvature="0" />
<path
   d="m 2266.621,909.309 5.996,2.998 -79.004,45.996 -2.988,-5.498 z"
   id="polygon4050"
   inkscape:connector-curvature="0" />
<path
   d="M 8.0078125,0 V -71.582031 H 17.480469 V -42.1875 H 54.6875 v -29.394531 h 9.472656 V 0 H 54.6875 V -33.740234 H 17.480469 V 0 Z"
   transform="translate(1859.625,1082.306)"
   id="path4052"
   inkscape:connector-curvature="0" />
<path
   d="m 7.6171875,0 v -71.582031 h 9.7167965 l 37.597657,56.201172 v -56.201172 h 9.082031 V 0 H 54.296875 L 16.699219,-56.25 V 0 Z"
   transform="translate(1859.625,1165.721)"
   id="path4054"
   inkscape:connector-curvature="0" />
<path
   d="m 1944.628,1158.811 2.989,-5.508 72.5,42.002 v 7.002 z"
   id="polygon4056"
   inkscape:connector-curvature="0" />
<path
   d="m 1773.613,1200.305 -2.988,-1.494 v -3.506 l 71.992,-41.494 3.008,5 z"
   id="polygon4058"
   inkscape:connector-curvature="0" />
<path
   d="m 1646.113,1130.305 v -7.002 l 124.512,72.002 v 3.506 l -3.008,1.494 z"
   id="polygon4060"
   inkscape:connector-curvature="0" />
<path
   d="m 4.4921875,-22.998047 8.9355465,-0.78125 c 0.423164,3.580749 1.407863,6.518572 2.954102,8.813477 1.546206,2.294934 3.94692,4.150401 7.202148,5.5664059 3.255182,1.4160236 6.917288,2.1240308 10.986329,2.1240235 3.613243,7.3e-6 6.803344,-0.5371016 9.570312,-1.6113282 2.76688,-1.0742087 4.825797,-2.5471892 6.176758,-4.4189452 1.35086,-1.87173 2.026315,-3.914371 2.026367,-6.12793 -5.2e-5,-2.246072 -0.651093,-4.207333 -1.953125,-5.883789 -1.302132,-1.676405 -3.450568,-3.084281 -6.445312,-4.223633 -1.920615,-0.748667 -6.168658,-1.912403 -12.744141,-3.491211 -6.575546,-1.578741 -11.181661,-3.067997 -13.818359,-4.467773 -3.417983,-1.790325 -5.965181,-4.012003 -7.6416021,-6.665039 -1.6764403,-2.652948 -2.5146556,-5.623323 -2.5146484,-8.911133 -7.2e-6,-3.613224 1.0253824,-6.9905 3.0761715,-10.131836 2.050769,-3.14121 5.045558,-5.525647 8.984375,-7.15332 3.938779,-1.627532 8.31703,-2.441334 13.134766,-2.441406 5.305952,7.2e-5 9.985309,0.854564 14.038086,2.563476 4.052684,1.709053 7.169543,4.223699 9.350586,7.543945 2.180931,3.320372 3.352805,7.080134 3.515625,11.279297 l -9.082031,0.683594 c -0.488331,-4.524684 -2.140348,-7.94265 -4.956055,-10.253906 -2.815798,-2.311135 -6.974322,-3.466733 -12.475586,-3.466797 -5.729194,6.4e-5 -9.903994,1.049868 -12.524414,3.149414 -2.62046,2.099669 -3.93068,4.630591 -3.930664,7.592773 -1.6e-5,2.571666 0.927717,4.68755 2.783203,6.347657 1.822896,1.660202 6.583633,3.361046 14.282227,5.102539 7.698526,1.741577 12.980096,3.263385 15.844726,4.565429 4.166613,1.920609 7.242782,4.353875 9.228516,7.299805 1.985616,2.945991 2.978454,6.339542 2.978515,10.180664 -6.1e-5,3.80861 -1.090555,7.397474 -3.271484,10.7666018 -2.181046,3.3691467 -5.31418,5.9895868 -9.399414,7.8613281 C 44.71838,0.28483044 40.120403,1.2207019 35.009766,1.2207031 28.531873,1.2207019 23.103818,0.27669243 18.725586,-1.6113281 14.347316,-3.4993455 10.913075,-6.3395119 8.4228516,-10.131836 5.9326113,-13.92414 4.6223912,-18.212872 4.4921875,-22.998047 Z"
   transform="translate(1488.627,949.8057)"
   id="path4062"
   inkscape:connector-curvature="0" />
<path
   d="m 4.4921875,-22.998047 8.9355465,-0.78125 c 0.423164,3.580749 1.407863,6.518572 2.954102,8.813477 1.546206,2.294934 3.94692,4.150401 7.202148,5.5664059 3.255182,1.4160236 6.917288,2.1240308 10.986329,2.1240235 3.613243,7.3e-6 6.803344,-0.5371016 9.570312,-1.6113282 2.76688,-1.0742087 4.825797,-2.5471892 6.176758,-4.4189452 1.35086,-1.87173 2.026315,-3.914371 2.026367,-6.12793 -5.2e-5,-2.246072 -0.651093,-4.207333 -1.953125,-5.883789 -1.302132,-1.676405 -3.450568,-3.084281 -6.445312,-4.223633 -1.920615,-0.748667 -6.168658,-1.912403 -12.744141,-3.491211 -6.575546,-1.578741 -11.181661,-3.067997 -13.818359,-4.467773 -3.417983,-1.790325 -5.965181,-4.012003 -7.6416021,-6.665039 -1.6764403,-2.652948 -2.5146556,-5.623323 -2.5146484,-8.911133 -7.2e-6,-3.613224 1.0253824,-6.9905 3.0761715,-10.131836 2.050769,-3.14121 5.045558,-5.525647 8.984375,-7.15332 3.938779,-1.627532 8.31703,-2.441334 13.134766,-2.441406 5.305952,7.2e-5 9.985309,0.854564 14.038086,2.563476 4.052684,1.709053 7.169543,4.223699 9.350586,7.543945 2.180931,3.320372 3.352805,7.080134 3.515625,11.279297 l -9.082031,0.683594 c -0.488331,-4.524684 -2.140348,-7.94265 -4.956055,-10.253906 -2.815798,-2.311135 -6.974322,-3.466733 -12.475586,-3.466797 -5.729194,6.4e-5 -9.903994,1.049868 -12.524414,3.149414 -2.62046,2.099669 -3.93068,4.630591 -3.930664,7.592773 -1.6e-5,2.571666 0.927717,4.68755 2.783203,6.347657 1.822896,1.660202 6.583633,3.361046 14.282227,5.102539 7.698526,1.741577 12.980096,3.263385 15.844726,4.565429 4.166613,1.920609 7.242782,4.353875 9.228516,7.299805 1.985616,2.945991 2.978454,6.339542 2.978515,10.180664 -6.1e-5,3.80861 -1.090555,7.397474 -3.271484,10.7666018 -2.181046,3.3691467 -5.31418,5.9895868 -9.399414,7.8613281 C 44.71838,0.28483044 40.120403,1.2207019 35.009766,1.2207031 28.531873,1.2207019 23.103818,0.27669243 18.725586,-1.6113281 14.347316,-3.4993455 10.913075,-6.3395119 8.4228516,-10.131836 5.9326113,-13.92414 4.6223912,-18.212872 4.4921875,-22.998047 Z"
   transform="translate(1488.627,805.7988)"
   id="path4064"
   inkscape:connector-curvature="0" />
<path
   d="m 1518.125,822.30701 h 5.996 v 39.003 h -5.996 z"
   id="rect4066"
   inkscape:connector-curvature="0" />
<path
   d="m 1643.125,693.308 5.996,2.998 -85,49.502 -2.989,-5.503 z"
   id="polygon4068"
   inkscape:connector-curvature="0" />
<path
   d="m 1643.125,552.307 2.988,-1.499 3.008,1.499 v 143.999 l -5.996,-2.998 z"
   id="polygon4070"
   inkscape:connector-curvature="0" />
<path
   d="m 1770.625,475.305 v 7.002 l -121.504,70 -3.008,-1.499 v -3.501 z"
   id="polygon4072"
   inkscape:connector-curvature="0" />
<path
   d="m 7.6171875,0 v -71.582031 h 9.7167965 l 37.597657,56.201172 v -56.201172 h 9.082031 V 0 H 54.296875 L 16.699219,-56.25 V 0 Z"
   transform="translate(1859.625,589.8057)"
   id="path4074"
   inkscape:connector-curvature="0" />
<path
   d="M 8.0078125,0 V -71.582031 H 17.480469 V -42.1875 H 54.6875 v -29.394531 h 9.472656 V 0 H 54.6875 V -33.740234 H 17.480469 V 0 Z"
   transform="translate(1859.625,673.2197)"
   id="path4076"
   inkscape:connector-curvature="0" />
<path
   d="m 1848.125,520.305 -3.008,5 -74.492,-42.998 v -7.002 z"
   id="polygon4078"
   inkscape:connector-curvature="0" />
<path
   d="m 2017.128,477.307 2.989,1.499 v 3.501 l -75,42.998 -2.989,-5 z"
   id="polygon4080"
   inkscape:connector-curvature="0" />
<path
   d="m 2147.617,549.309 -5.996,2.998 -121.504,-70 v -3.501 l 3.008,-1.499 z"
   id="polygon4082"
   inkscape:connector-curvature="0" />
<path
   d="M 8.0078125,0 V -71.582031 H 17.480469 V -42.1875 H 54.6875 v -29.394531 h 9.472656 V 0 H 54.6875 V -33.740234 H 17.480469 V 0 Z M 79.882813,0 v -71.582031 h 9.716796 l 37.597661,56.201172 v -56.201172 h 9.08203 V 0 h -9.7168 L 88.964844,-56.25 V 0 Z"
   transform="translate(2035.123,733.8174)"
   id="path4084"
   inkscape:connector-curvature="0" />
<path
   d="m 2147.617,646.809 h -5.996 v -94.502 l 5.996,-2.998 z"
   id="polygon4086"
   inkscape:connector-curvature="0" />
<path
   d="m 2269.628,763.308 v 3.501 l -3.007,1.499 -74.493,-42.5 2.989,-5.503 z"
   id="polygon4088"
   inkscape:connector-curvature="0" />
<path
   d="m 2272.617,912.307 -5.996,-2.998 V 768.308 l 3.007,-1.499 2.989,1.499 z"
   id="polygon4090"
   inkscape:connector-curvature="0" />
<path
   d="m 7.6171875,0 v -71.582031 h 9.7167965 l 37.597657,56.201172 v -56.201172 h 9.082031 V 0 H 54.296875 L 16.699219,-56.25 V 0 Z"
   transform="translate(1485.123,1237.808)"
   id="path4092"
   inkscape:connector-curvature="0" />
<path
   d="M 8.0078125,0 V -71.582031 H 17.480469 V -42.1875 H 54.6875 v -29.394531 h 9.472656 V 0 H 54.6875 V -33.740234 H 17.480469 V 0 Z"
   transform="translate(1485.123,1321.223)"
   id="path4094"
   inkscape:connector-curvature="0" />
<path
   d="m 1571.113,1173.303 -2.988,-5 77.988,-45 v 7.002 z"
   id="polygon4096"
   inkscape:connector-curvature="0" />
<path
   d="m 1396.621,1130.305 v -3.496 l 3.007,-1.504 74.493,42.998 -2.989,5 z"
   id="polygon4098"
   inkscape:connector-curvature="0" />
<path
   d="m 1393.613,981.311 6.015,2.998 v 140.996 l -3.007,1.504 -3.008,-1.504 z"
   id="polygon4100"
   inkscape:connector-curvature="0" />
<path
   d="m 1475.117,933.811 3.008,5 -78.497,45.498 -6.015,-2.998 z"
   id="polygon4102"
   inkscape:connector-curvature="0" />
<path
   d="m 1272.124,1201.809 v -6.504 l 121.489,-70 3.008,1.504 v 3.496 z"
   id="polygon4104"
   inkscape:connector-curvature="0" />
<path
   d="m 4.8339844,-34.863281 c -4.9e-6,-11.881464 3.1900961,-21.183212 9.5703126,-27.905274 6.380187,-6.721935 14.615856,-10.082935 24.707031,-10.083008 6.608027,7.3e-5 12.565053,1.578848 17.871094,4.736329 5.305927,3.157617 9.350519,7.560282 12.133789,13.208007 2.783131,5.647836 4.174731,12.052452 4.174805,19.213868 -7.4e-5,7.259143 -1.464916,13.753277 -4.394532,19.482421 -2.929753,5.729178 -7.08014,10.0667384 -12.451171,13.0126958 C 51.074168,-0.25227839 45.279903,1.2207019 39.0625,1.2207031 32.324186,1.2207019 26.302057,-0.40690063 20.996094,-3.6621094 15.690088,-6.9173108 11.66991,-11.360666 8.9355469,-16.992188 6.2011657,-22.623675 4.8339795,-28.580701 4.8339844,-34.863281 Z m 9.7656246,0.146484 c -1.4e-5,8.626328 2.319319,15.421569 6.958008,20.385742 4.638646,4.9642024 10.457325,7.4462963 17.456055,7.4462894 7.12886,6.9e-6 12.996367,-2.5065011 17.602539,-7.5195314 4.606059,-5.013001 6.909116,-12.125624 6.90918,-21.337891 -6.4e-5,-5.826781 -0.984763,-10.913039 -2.954102,-15.258789 -1.96946,-4.345647 -4.850316,-7.714785 -8.642578,-10.107421 -3.792366,-2.392515 -8.048547,-3.588803 -12.768555,-3.588868 -6.705761,6.5e-5 -12.475612,2.303123 -17.30957,6.90918 -4.834001,4.606173 -7.250991,12.296595 -7.250977,23.071289 z"
   transform="translate(1234.118,1380.799)"
   id="path4106"
   inkscape:connector-curvature="0" />
<path
   d="m 1282.124,1191.311 h 6.001 v 100.996 h -6.001 z"
   id="rect4108"
   inkscape:connector-curvature="0" />
<path
   d="m 1256.123,1191.311 h 6.001 v 100.996 h -6.001 z"
   id="rect4110"
   inkscape:connector-curvature="0" />
<path
   d="m 7.6171875,0 v -71.582031 h 9.7167965 l 37.597657,56.201172 v -56.201172 h 9.082031 V 0 H 54.296875 L 16.699219,-56.25 V 0 Z"
   transform="translate(1112.126,1165.799)"
   id="path4112"
   inkscape:connector-curvature="0" />
<path
   d="m 1197.124,1158.811 2.998,-5.508 72.002,42.002 v 6.504 z"
   id="polygon4114"
   inkscape:connector-curvature="0" />
<path
   d="m 4.8339844,-34.863281 c -4.9e-6,-11.881464 3.1900961,-21.183212 9.5703126,-27.905274 6.380187,-6.721935 14.615856,-10.082935 24.707031,-10.083008 6.608027,7.3e-5 12.565053,1.578848 17.871094,4.736329 5.305927,3.157617 9.350519,7.560282 12.133789,13.208007 2.783131,5.647836 4.174731,12.052452 4.174805,19.213868 -7.4e-5,7.259143 -1.464916,13.753277 -4.394532,19.482421 -2.929753,5.729178 -7.08014,10.0667384 -12.451171,13.0126958 C 51.074168,-0.25227839 45.279903,1.2207019 39.0625,1.2207031 32.324186,1.2207019 26.302057,-0.40690063 20.996094,-3.6621094 15.690088,-6.9173108 11.66991,-11.360666 8.9355469,-16.992188 6.2011657,-22.623675 4.8339795,-28.580701 4.8339844,-34.863281 Z m 9.7656246,0.146484 c -1.4e-5,8.626328 2.319319,15.421569 6.958008,20.385742 4.638646,4.9642024 10.457325,7.4462963 17.456055,7.4462894 7.12886,6.9e-6 12.996367,-2.5065011 17.602539,-7.5195314 4.606059,-5.013001 6.909116,-12.125624 6.90918,-21.337891 -6.4e-5,-5.826781 -0.984763,-10.913039 -2.954102,-15.258789 -1.96946,-4.345647 -4.850316,-7.714785 -8.642578,-10.107421 -3.792366,-2.392515 -8.048547,-3.588803 -12.768555,-3.588868 -6.705761,6.5e-5 -12.475612,2.303123 -17.30957,6.90918 -4.834001,4.606173 -7.250991,12.296595 -7.250977,23.071289 z"
   transform="translate(1607.623,1022.306)"
   id="path4116"
   inkscape:connector-curvature="0" />
<path
   d="m 1630.1169,1038.811 h 6.016 v 95.498 h -6.016 z"
   id="rect4118"
   inkscape:connector-curvature="0" />
<path
   d="m 1656.113,1038.811 h 6.016 v 95.498 h -6.016 z"
   id="rect4120"
   inkscape:connector-curvature="0" />
<path
   d="m 1773.613,1343.303 -5.996,-2.5 v -140.498 l 3.008,-1.494 2.988,1.494 z"
   id="polygon4122"
   inkscape:connector-curvature="0" />
<path
   d="M 8.0078125,0 V -71.582031 H 17.480469 V -42.1875 H 54.6875 v -29.394531 h 9.472656 V 0 H 54.6875 V -33.740234 H 17.480469 V 0 Z"
   transform="translate(1370.502,517.8066)"
   id="path4124"
   inkscape:connector-curvature="0" />
<path
   d="M 37.756348,-6.3354492 V 0 H 2.2705078 c -0.04883,-1.5869125 0.2075171,-3.1127899 0.769043,-4.5776367 0.9033164,-2.4169852 2.3498481,-4.7973539 4.3395996,-7.1411133 1.9897367,-2.343736 4.8644896,-5.053694 8.6242676,-8.129883 5.834939,-4.785131 9.777806,-8.575411 11.828613,-11.370849 2.050752,-2.795377 3.076141,-5.438196 3.076172,-7.928467 -3.1e-5,-2.612263 -0.933868,-4.81563 -2.801514,-6.610108 -1.867702,-1.794386 -4.303002,-2.691602 -7.305908,-2.69165 -3.173846,4.8e-5 -5.712905,0.952196 -7.617187,2.856445 -1.904308,1.904341 -2.868663,4.541057 -2.893067,7.910157 l -6.774902,-0.695801 c 0.4638632,-5.053668 2.2094669,-8.904982 5.2368164,-11.553955 3.0273316,-2.648874 7.0922696,-3.973335 12.1948246,-3.973389 5.151341,5.4e-5 9.228485,1.428275 12.231445,4.284668 3.002893,2.856492 4.504357,6.396528 4.504394,10.620117 -3.7e-5,2.148475 -0.43949,4.260289 -1.318359,6.335449 -0.878942,2.075226 -2.33768,4.260283 -4.376221,6.555176 -2.038604,2.294946 -5.426052,5.444357 -10.162353,9.448242 -3.955096,3.320326 -6.494156,5.572521 -7.617188,6.7565921 -1.12306,1.1840908 -2.050793,2.3742752 -2.783203,3.5705567 z"
   transform="translate(1442.699,536.5459)"
   id="path4126"
   inkscape:connector-curvature="0" />
<path
   d="m 7.6171875,0 v -71.582031 h 9.7167965 l 37.597657,56.201172 v -56.201172 h 9.082031 V 0 H 54.296875 L 16.699219,-56.25 V 0 Z"
   transform="translate(1484.408,517.8066)"
   id="path4128"
   inkscape:connector-curvature="0" />
<path
   d="m 1569.121,509.807 3.007,-5 73.985,42.5 v 3.501 l -2.988,1.499 z"
   id="polygon4130"
   inkscape:connector-curvature="0" />
<path
   d="m 4.8339844,-34.863281 c -4.9e-6,-11.881464 3.1900961,-21.183212 9.5703126,-27.905274 6.380187,-6.721935 14.615856,-10.082935 24.707031,-10.083008 6.608027,7.3e-5 12.565053,1.578848 17.871094,4.736329 5.305927,3.157617 9.350519,7.560282 12.133789,13.208007 2.783131,5.647836 4.174731,12.052452 4.174805,19.213868 -7.4e-5,7.259143 -1.464916,13.753277 -4.394532,19.482421 -2.929753,5.729178 -7.08014,10.0667384 -12.451171,13.0126958 C 51.074168,-0.25227839 45.279903,1.2207019 39.0625,1.2207031 32.324186,1.2207019 26.302057,-0.40690063 20.996094,-3.6621094 15.690088,-6.9173108 11.66991,-11.360666 8.9355469,-16.992188 6.2011657,-22.623675 4.8339795,-28.580701 4.8339844,-34.863281 Z m 9.7656246,0.146484 c -1.4e-5,8.626328 2.319319,15.421569 6.958008,20.385742 4.638646,4.9642024 10.457325,7.4462963 17.456055,7.4462894 7.12886,6.9e-6 12.996367,-2.5065011 17.602539,-7.5195314 4.606059,-5.013001 6.909116,-12.125624 6.90918,-21.337891 -6.4e-5,-5.826781 -0.984763,-10.913039 -2.954102,-15.258789 -1.96946,-4.345647 -4.850316,-7.714785 -8.642578,-10.107421 -3.792366,-2.392515 -8.048547,-3.588803 -12.768555,-3.588868 -6.705761,6.5e-5 -12.475612,2.303123 -17.30957,6.90918 -4.834001,4.606173 -7.250991,12.296595 -7.250977,23.071289 z"
   transform="translate(1732.623,374.3076)"
   id="path4132"
   inkscape:connector-curvature="0" />
<path
   d="m 1754.6281,390.80801 h 5.996 v 95.49801 h -5.996 z"
   id="rect4134"
   inkscape:connector-curvature="0" />
<path
   d="m 1780.625,390.80801 h 5.996 v 95.49801 h -5.996 z"
   id="rect4136"
   inkscape:connector-curvature="0" />
<path
   d="m 2017.128,333.308 5.997,2.998 v 141.001 l -3.008,1.499 -2.989,-1.499 z"
   id="polygon4138"
   inkscape:connector-curvature="0" />
<path
   d="m 2141.621,261.306 3.007,1.499 v 3.501 l -121.503,70 -5.997,-2.998 z"
   id="polygon4140"
   inkscape:connector-curvature="0" />
<path
   d="m 2269.628,331.306 v 7.002 l -125,-72.002 v -3.501 l 2.989,-1.499 z"
   id="polygon4142"
   inkscape:connector-curvature="0" />
<path
   d="m 2271.113,302.307 -2.988,5 -99.004,-57.002 3.007,-5 z"
   id="polygon4144"
   inkscape:connector-curvature="0" />
<path
   d="m 2391.113,261.306 6.015,3.003 -127.5,73.999 v -7.002 z"
   id="polygon4146"
   inkscape:connector-curvature="0" />
<path
   d="m 2391.113,120.305 3.008,-1.499 3.007,1.499 v 144.004 l -6.015,-3.003 z"
   id="polygon4148"
   inkscape:connector-curvature="0" />
<path
   d="m 2365.1169,133.806 h 6.016 v 113.999 h -6.016 z"
   id="rect4150"
   inkscape:connector-curvature="0" />
<path
   d="m 2269.628,50.305 v -6.997 l 124.493,71.997 v 3.501 l -3.008,1.499 z"
   id="polygon4152"
   inkscape:connector-curvature="0" />
<path
   d="m 2147.617,120.305 -5.996,-2.998 128.007,-73.999 v 6.997 z"
   id="polygon4154"
   inkscape:connector-curvature="0" />
<path
   d="m 2172.128,136.306 -3.007,-5 99.004,-56.997 2.988,5 z"
   id="polygon4156"
   inkscape:connector-curvature="0" />
<path
   d="m 2147.617,261.306 -2.989,1.499 -3.007,-1.499 V 117.307 l 5.996,2.998 z"
   id="polygon4158"
   inkscape:connector-curvature="0" />
<path
   d="m 4.8339844,-34.863281 c -4.9e-6,-11.881464 3.1900961,-21.183212 9.5703126,-27.905274 6.380187,-6.721935 14.615856,-10.082935 24.707031,-10.083008 6.608027,7.3e-5 12.565053,1.578848 17.871094,4.736329 5.305927,3.157617 9.350519,7.560282 12.133789,13.208007 2.783131,5.647836 4.174731,12.052452 4.174805,19.213868 -7.4e-5,7.259143 -1.464916,13.753277 -4.394532,19.482421 -2.929753,5.729178 -7.08014,10.0667384 -12.451171,13.0126958 C 51.074168,-0.25227839 45.279903,1.2207019 39.0625,1.2207031 32.324186,1.2207019 26.302057,-0.40690063 20.996094,-3.6621094 15.690088,-6.9173108 11.66991,-11.360666 8.9355469,-16.992188 6.2011657,-22.623675 4.8339795,-28.580701 4.8339844,-34.863281 Z m 9.7656246,0.146484 c -1.4e-5,8.626328 2.319319,15.421569 6.958008,20.385742 4.638646,4.9642024 10.457325,7.4462963 17.456055,7.4462894 7.12886,6.9e-6 12.996367,-2.5065011 17.602539,-7.5195314 4.606059,-5.013001 6.909116,-12.125624 6.90918,-21.337891 -6.4e-5,-5.826781 -0.984763,-10.913039 -2.954102,-15.258789 -1.96946,-4.345647 -4.850316,-7.714785 -8.642578,-10.107421 -3.792366,-2.392515 -8.048547,-3.588803 -12.768555,-3.588868 -6.705761,6.5e-5 -12.475612,2.303123 -17.30957,6.90918 -4.834001,4.606173 -7.250991,12.296595 -7.250977,23.071289 z M 85.742188,0 v -71.582031 h 9.472656 V -42.1875 h 37.207036 v -29.394531 h 9.47265 V 0 h -9.47265 V -33.740234 H 95.214844 V 0 Z"
   transform="translate(2480.123,85.7988)"
   id="path4160"
   inkscape:connector-curvature="0" />
<path
   d="m 2471.113,70.808 3.008,5 -76.993,44.497 -3.007,-1.499 v -3.501 z"
   id="polygon4162"
   inkscape:connector-curvature="0" />
<path
   d="m 4.8339844,-34.863281 c -4.9e-6,-11.881464 3.1900961,-21.183212 9.5703126,-27.905274 6.380187,-6.721935 14.615856,-10.082935 24.707031,-10.083008 6.608027,7.3e-5 12.565053,1.578848 17.871094,4.736329 5.305927,3.157617 9.350519,7.560282 12.133789,13.208007 2.783131,5.647836 4.174731,12.052452 4.174805,19.213868 -7.4e-5,7.259143 -1.464916,13.753277 -4.394532,19.482421 -2.929753,5.729178 -7.08014,10.0667384 -12.451171,13.0126958 C 51.074168,-0.25227839 45.279903,1.2207019 39.0625,1.2207031 32.324186,1.2207019 26.302057,-0.40690063 20.996094,-3.6621094 15.690088,-6.9173108 11.66991,-11.360666 8.9355469,-16.992188 6.2011657,-22.623675 4.8339795,-28.580701 4.8339844,-34.863281 Z m 9.7656246,0.146484 c -1.4e-5,8.626328 2.319319,15.421569 6.958008,20.385742 4.638646,4.9642024 10.457325,7.4462963 17.456055,7.4462894 7.12886,6.9e-6 12.996367,-2.5065011 17.602539,-7.5195314 4.606059,-5.013001 6.909116,-12.125624 6.90918,-21.337891 -6.4e-5,-5.826781 -0.984763,-10.913039 -2.954102,-15.258789 -1.96946,-4.345647 -4.850316,-7.714785 -8.642578,-10.107421 -3.792366,-2.392515 -8.048547,-3.588803 -12.768555,-3.588868 -6.705761,6.5e-5 -12.475612,2.303123 -17.30957,6.90918 -4.834001,4.606173 -7.250991,12.296595 -7.250977,23.071289 z"
   transform="translate(2230.619,517.8066)"
   id="path4164"
   inkscape:connector-curvature="0" />
<path
   transform="matrix(0.5129,0.8585,-0.8585,0.5129,1504.637,-1614.149)"
   d="m 2171.751,469.715 h 5.824 v 98.112 h -5.824 z"
   id="rect4166"
   inkscape:connector-curvature="0" />
<path
   d="m 2228.125,513.806 2.988,5.503 -84.981,48.999 -3.007,-5 z"
   id="polygon4168"
   inkscape:connector-curvature="0" />
<path
   d="m 2390.625,693.308 3.007,1.499 v 3.501 l -121.015,70 -2.989,-1.499 v -3.501 z"
   id="polygon4170"
   inkscape:connector-curvature="0" />
<path
   d="m 2519.628,764.309 -1.503,2.5 -1.504,2.5 -122.989,-71.001 v -3.501 l 2.989,-1.499 z"
   id="polygon4172"
   inkscape:connector-curvature="0" />
<path
   d="m 2390.625,549.807 5.996,3.501 v 140 l -2.989,1.499 -3.007,-1.499 z"
   id="polygon4174"
   inkscape:connector-curvature="0" />
<path
   d="m 2517.128,476.809 1.485,2.5 1.504,2.998 -123.496,71.001 -5.996,-3.501 z"
   id="polygon4176"
   inkscape:connector-curvature="0" />
<path
   d="m 4.8339844,-34.863281 c -4.9e-6,-11.881464 3.1900961,-21.183212 9.5703126,-27.905274 6.380187,-6.721935 14.615856,-10.082935 24.707031,-10.083008 6.608027,7.3e-5 12.565053,1.578848 17.871094,4.736329 5.305927,3.157617 9.350519,7.560282 12.133789,13.208007 2.783131,5.647836 4.174731,12.052452 4.174805,19.213868 -7.4e-5,7.259143 -1.464916,13.753277 -4.394532,19.482421 -2.929753,5.729178 -7.08014,10.0667384 -12.451171,13.0126958 C 51.074168,-0.25227839 45.279903,1.2207019 39.0625,1.2207031 32.324186,1.2207019 26.302057,-0.40690063 20.996094,-3.6621094 15.690088,-6.9173108 11.66991,-11.360666 8.9355469,-16.992188 6.2011657,-22.623675 4.8339795,-28.580701 4.8339844,-34.863281 Z m 9.7656246,0.146484 c -1.4e-5,8.626328 2.319319,15.421569 6.958008,20.385742 4.638646,4.9642024 10.457325,7.4462963 17.456055,7.4462894 7.12886,6.9e-6 12.996367,-2.5065011 17.602539,-7.5195314 4.606059,-5.013001 6.909116,-12.125624 6.90918,-21.337891 -6.4e-5,-5.826781 -0.984763,-10.913039 -2.954102,-15.258789 -1.96946,-4.345647 -4.850316,-7.714785 -8.642578,-10.107421 -3.792366,-2.392515 -8.048547,-3.588803 -12.768555,-3.588868 -6.705761,6.5e-5 -12.475612,2.303123 -17.30957,6.90918 -4.834001,4.606173 -7.250991,12.296595 -7.250977,23.071289 z"
   transform="translate(2355.619,1021.317)"
   id="path4178"
   inkscape:connector-curvature="0" />
<path
   transform="matrix(-0.513,0.8584,-0.8584,-0.513,4290.7,-592.2529)"
   d="m 2310.439,870.479 h 5.825 v 101.032 h -5.825 z"
   id="rect4180"
   inkscape:connector-curvature="0" />
<path
   transform="matrix(-0.5155,0.8569,-0.8569,-0.5155,4294.789,-541.2534)"
   d="m 2297.498,893.06403 h 5.835 v 101.03199 h -5.835 z"
   id="rect4182"
   inkscape:connector-curvature="0" />
<path
   d="m 2272.617,1197.307 -5.996,2.998 -121.993,-70 v -3.496 l 2.989,-1.504 z"
   id="polygon4184"
   inkscape:connector-curvature="0" />
<path
   d="m 2272.617,1341.311 -5.996,2.998 v -144.004 l 5.996,-2.998 z"
   id="polygon4186"
   inkscape:connector-curvature="0" />
<path
   d="m 2397.128,1413.303 -6.015,3.008 -124.492,-72.002 5.996,-2.998 z"
   id="polygon4188"
   inkscape:connector-curvature="0" />
<path
   d="m 4.8339844,-34.863281 c -4.9e-6,-11.881464 3.1900961,-21.183212 9.5703126,-27.905274 6.380187,-6.721935 14.615856,-10.082935 24.707031,-10.083008 6.608027,7.3e-5 12.565053,1.578848 17.871094,4.736329 5.305927,3.157617 9.350519,7.560282 12.133789,13.208007 2.783131,5.647836 4.174731,12.052452 4.174805,19.213868 -7.4e-5,7.259143 -1.464916,13.753277 -4.394532,19.482421 -2.929753,5.729178 -7.08014,10.0667384 -12.451171,13.0126958 C 51.074168,-0.25227839 45.279903,1.2207019 39.0625,1.2207031 32.324186,1.2207019 26.302057,-0.40690063 20.996094,-3.6621094 15.690088,-6.9173108 11.66991,-11.360666 8.9355469,-16.992188 6.2011657,-22.623675 4.8339795,-28.580701 4.8339844,-34.863281 Z m 9.7656246,0.146484 c -1.4e-5,8.626328 2.319319,15.421569 6.958008,20.385742 4.638646,4.9642024 10.457325,7.4462963 17.456055,7.4462894 7.12886,6.9e-6 12.996367,-2.5065011 17.602539,-7.5195314 4.606059,-5.013001 6.909116,-12.125624 6.90918,-21.337891 -6.4e-5,-5.826781 -0.984763,-10.913039 -2.954102,-15.258789 -1.96946,-4.345647 -4.850316,-7.714785 -8.642578,-10.107421 -3.792366,-2.392515 -8.048547,-3.588803 -12.768555,-3.588868 -6.705761,6.5e-5 -12.475612,2.303123 -17.30957,6.90918 -4.834001,4.606173 -7.250991,12.296595 -7.250977,23.071289 z"
   transform="translate(2480.123,1381.809)"
   id="path4190"
   inkscape:connector-curvature="0" />
<path
   transform="matrix(0.513,0.8584,-0.8584,0.513,2367.246,-1407.054)"
   d="m 2420.7759,1333.72 h 5.825 v 98.115 h -5.825 z"
   id="rect4192"
   inkscape:connector-curvature="0" />
<path
   d="m 2477.617,1377.805 3.008,5.498 -85,49.004 -3.008,-5 z"
   id="polygon4194"
   inkscape:connector-curvature="0" />
<path
   d="m 7.6171875,0 v -71.582031 h 9.7167965 l 37.597657,56.201172 v -56.201172 h 9.082031 V 0 H 54.296875 L 16.699219,-56.25 V 0 Z M 80.273438,0 v -71.582031 h 9.472656 V -42.1875 h 37.207036 v -29.394531 h 9.47265 V 0 h -9.47265 V -33.740234 H 89.746094 V 0 Z"
   transform="translate(2358.125,1597.306)"
   id="path4196"
   inkscape:connector-curvature="0" />
<path
   d="M 37.756348,-6.3354492 V 0 H 2.2705078 c -0.04883,-1.5869125 0.2075171,-3.1127899 0.769043,-4.5776367 0.9033164,-2.4169852 2.3498481,-4.7973539 4.3395996,-7.1411133 1.9897367,-2.343736 4.8644896,-5.053694 8.6242676,-8.129883 5.834939,-4.785131 9.777806,-8.575411 11.828613,-11.370849 2.050752,-2.795377 3.076141,-5.438196 3.076172,-7.928467 -3.1e-5,-2.612263 -0.933868,-4.81563 -2.801514,-6.610108 -1.867702,-1.794386 -4.303002,-2.691602 -7.305908,-2.69165 -3.173846,4.8e-5 -5.712905,0.952196 -7.617187,2.856445 -1.904308,1.904341 -2.868663,4.541057 -2.893067,7.910157 l -6.774902,-0.695801 c 0.4638632,-5.053668 2.2094669,-8.904982 5.2368164,-11.553955 3.0273316,-2.648874 7.0922696,-3.973335 12.1948246,-3.973389 5.151341,5.4e-5 9.228485,1.428275 12.231445,4.284668 3.002893,2.856492 4.504357,6.396528 4.504394,10.620117 -3.7e-5,2.148475 -0.43949,4.260289 -1.318359,6.335449 -0.878942,2.075226 -2.33768,4.260283 -4.376221,6.555176 -2.038604,2.294946 -5.426052,5.444357 -10.162353,9.448242 -3.955096,3.320326 -6.494156,5.572521 -7.617188,6.7565921 -1.12306,1.1840908 -2.050793,2.3742752 -2.783203,3.5705567 z"
   transform="translate(2502.533,1616.053)"
   id="path4198"
   inkscape:connector-curvature="0" />
<path
   d="m 2397.128,1510.305 h -6.015 v -93.994 l 6.015,-3.008 z"
   id="polygon4200"
   inkscape:connector-curvature="0" />
<path
   d="m 4.8339844,-34.863281 c -4.9e-6,-11.881464 3.1900961,-21.183212 9.5703126,-27.905274 6.380187,-6.721935 14.615856,-10.082935 24.707031,-10.083008 6.608027,7.3e-5 12.565053,1.578848 17.871094,4.736329 5.305927,3.157617 9.350519,7.560282 12.133789,13.208007 2.783131,5.647836 4.174731,12.052452 4.174805,19.213868 -7.4e-5,7.259143 -1.464916,13.753277 -4.394532,19.482421 -2.929753,5.729178 -7.08014,10.0667384 -12.451171,13.0126958 C 51.074168,-0.25227839 45.279903,1.2207019 39.0625,1.2207031 32.324186,1.2207019 26.302057,-0.40690063 20.996094,-3.6621094 15.690088,-6.9173108 11.66991,-11.360666 8.9355469,-16.992188 6.2011657,-22.623675 4.8339795,-28.580701 4.8339844,-34.863281 Z m 9.7656246,0.146484 c -1.4e-5,8.626328 2.319319,15.421569 6.958008,20.385742 4.638646,4.9642024 10.457325,7.4462963 17.456055,7.4462894 7.12886,6.9e-6 12.996367,-2.5065011 17.602539,-7.5195314 4.606059,-5.013001 6.909116,-12.125624 6.90918,-21.337891 -6.4e-5,-5.826781 -0.984763,-10.913039 -2.954102,-15.258789 -1.96946,-4.345647 -4.850316,-7.714785 -8.642578,-10.107421 -3.792366,-2.392515 -8.048547,-3.588803 -12.768555,-3.588868 -6.705761,6.5e-5 -12.475612,2.303123 -17.30957,6.90918 -4.834001,4.606173 -7.250991,12.296595 -7.250977,23.071289 z"
   transform="translate(1981.617,1381.317)"
   id="path4202"
   inkscape:connector-curvature="0" />
<path
   d="m 2030.1169,1191.311 h 5.996 v 101.494 h -5.996 z"
   id="rect4204"
   inkscape:connector-curvature="0" />
<path
   d="m 2004.121,1191.311 h 5.996 v 101.494 h -5.996 z"
   id="rect4206"
   inkscape:connector-curvature="0" />
<path
   d="m 1026.123,1200.305 -2.998,-1.494 0.498,-3.506 71.499,-41.494 3.003,5 z"
   id="polygon4208"
   inkscape:connector-curvature="0" />
<path
   d="m 1115.625,988.811 5,-5.508 19.497,91.504 -6.001,0.996 z"
   id="polygon4210"
   inkscape:connector-curvature="0" />
<path
   d="m 976.621,974.309 -3.496,-6.504 147.5,15.498 -5,5.508 z"
   id="polygon4212"
   inkscape:connector-curvature="0" />
<path
   d="m 920.122,1101.809 -7.5,1.494 60.503,-135.498 3.496,6.504 z"
   id="polygon4214"
   inkscape:connector-curvature="0" />
<path
   d="m 1023.623,1195.305 -0.498,3.506 -3.003,1.494 -107.5,-97.002 7.5,-1.494 z"
   id="polygon4216"
   inkscape:connector-curvature="0" />
<path
   d="m 1026.123,1344.309 -6.001,-2.998 v -141.006 l 3.003,-1.494 2.998,1.494 z"
   id="polygon4218"
   inkscape:connector-curvature="0" />
<path
   d="m 7.6171875,0 v -71.582031 h 9.7167965 l 37.597657,56.201172 v -56.201172 h 9.082031 V 0 H 54.296875 L 16.699219,-56.25 V 0 Z"
   transform="translate(862.623,1453.817)"
   id="path4220"
   inkscape:connector-curvature="0" />
<path
   d="M 8.0078125,0 V -71.582031 H 17.480469 V -42.1875 H 54.6875 v -29.394531 h 9.472656 V 0 H 54.6875 V -33.740234 H 17.480469 V 0 Z"
   transform="translate(862.623,1537.222)"
   id="path4222"
   inkscape:connector-curvature="0" />
<path
   d="m 948.623,1389.309 -2.998,-5.498 74.497,-42.5 6.001,2.998 z"
   id="polygon4224"
   inkscape:connector-curvature="0" />
<path
   d="m 774.121,1346.311 v -3.506 l 3.003,-1.494 74.497,42.998 -2.998,5 z"
   id="polygon4226"
   inkscape:connector-curvature="0" />
<path
   d="m 4.8339844,-34.863281 c -4.9e-6,-11.881464 3.1900961,-21.183212 9.5703126,-27.905274 6.380187,-6.721935 14.615856,-10.082935 24.707031,-10.083008 6.608027,7.3e-5 12.565053,1.578848 17.871094,4.736329 5.305927,3.157617 9.350519,7.560282 12.133789,13.208007 2.783131,5.647836 4.174731,12.052452 4.174805,19.213868 -7.4e-5,7.259143 -1.464916,13.753277 -4.394532,19.482421 -2.929753,5.729178 -7.08014,10.0667384 -12.451171,13.0126958 C 51.074168,-0.25227839 45.279903,1.2207019 39.0625,1.2207031 32.324186,1.2207019 26.302057,-0.40690063 20.996094,-3.6621094 15.690088,-6.9173108 11.66991,-11.360666 8.9355469,-16.992188 6.2011657,-22.623675 4.8339795,-28.580701 4.8339844,-34.863281 Z m 9.7656246,0.146484 c -1.4e-5,8.626328 2.319319,15.421569 6.958008,20.385742 4.638646,4.9642024 10.457325,7.4462963 17.456055,7.4462894 7.12886,6.9e-6 12.996367,-2.5065011 17.602539,-7.5195314 4.606059,-5.013001 6.909116,-12.125624 6.90918,-21.337891 -6.4e-5,-5.826781 -0.984763,-10.913039 -2.954102,-15.258789 -1.96946,-4.345647 -4.850316,-7.714785 -8.642578,-10.107421 -3.792366,-2.392515 -8.048547,-3.588803 -12.768555,-3.588868 -6.705761,6.5e-5 -12.475612,2.303123 -17.30957,6.90918 -4.834001,4.606173 -7.250991,12.296595 -7.250977,23.071289 z"
   transform="translate(1109.118,1453.299)"
   id="path4228"
   inkscape:connector-curvature="0" />
<path
   transform="matrix(-0.5149,0.8573,-0.8573,-0.5149,2776.231,1135.057)"
   d="m 1064.031,1302.556 h 5.832 v 101.03 h -5.832 z"
   id="rect4230"
   inkscape:connector-curvature="0" />
<path
   transform="matrix(-0.5147,0.8573,-0.8573,-0.5147,2776.558,1179.61)"
   d="m 1051.533,1325.057 h 5.832 v 101.032 h -5.832 z"
   id="rect4232"
   inkscape:connector-curvature="0" />
<path
   d="m 649.121,1418.303 v -6.992 l 122.002,-70 2.998,1.494 v 3.506 z"
   id="polygon4234"
   inkscape:connector-curvature="0" />
<path
   d="M 8.0078125,0 V -71.582031 H 17.480469 V -42.1875 H 54.6875 v -29.394531 h 9.472656 V 0 H 54.6875 V -33.740234 H 17.480469 V 0 Z"
   transform="translate(488.627,1298.299)"
   id="path4236"
   inkscape:connector-curvature="0" />
<path
   d="m 7.6171875,0 v -71.582031 h 9.7167965 l 37.597657,56.201172 v -56.201172 h 9.082031 V 0 H 54.296875 L 16.699219,-56.25 V 0 Z"
   transform="translate(488.627,1381.72)"
   id="path4238"
   inkscape:connector-curvature="0" />
<path
   d="m 574.121,1375.305 3.003,-5.498 71.997,41.504 v 6.992 z"
   id="polygon4240"
   inkscape:connector-curvature="0" />
<path
   d="m 399.624,1418.303 v -6.992 l 72.5,-42.002 2.998,5.498 z"
   id="polygon4242"
   inkscape:connector-curvature="0" />
<path
   d="m 771.123,1199.807 6.001,-2.5 v 144.004 l -3.003,1.494 -2.998,-1.494 z"
   id="polygon4244"
   inkscape:connector-curvature="0" />
<path
   d="m 671.123,1100.305 1.001,-3.496 3.501,-0.498 101.499,100.996 -6.001,2.5 z"
   id="polygon4246"
   inkscape:connector-curvature="0" />
<path
   d="m 4.8339844,-34.863281 c -4.9e-6,-11.881464 3.1900961,-21.183212 9.5703126,-27.905274 6.380187,-6.721935 14.615856,-10.082935 24.707031,-10.083008 6.608027,7.3e-5 12.565053,1.578848 17.871094,4.736329 5.305927,3.157617 9.350519,7.560282 12.133789,13.208007 2.783131,5.647836 4.174731,12.052452 4.174805,19.213868 -7.4e-5,7.259143 -1.464916,13.753277 -4.394532,19.482421 -2.929753,5.729178 -7.08014,10.0667384 -12.451171,13.0126958 C 51.074168,-0.25227839 45.279903,1.2207019 39.0625,1.2207031 32.324186,1.2207019 26.302057,-0.40690063 20.996094,-3.6621094 15.690088,-6.9173108 11.66991,-11.360666 8.9355469,-16.992188 6.2011657,-22.623675 4.8339795,-28.580701 4.8339844,-34.863281 Z m 9.7656246,0.146484 c -1.4e-5,8.626328 2.319319,15.421569 6.958008,20.385742 4.638646,4.9642024 10.457325,7.4462963 17.456055,7.4462894 7.12886,6.9e-6 12.996367,-2.5065011 17.602539,-7.5195314 4.606059,-5.013001 6.909116,-12.125624 6.90918,-21.337891 -6.4e-5,-5.826781 -0.984763,-10.913039 -2.954102,-15.258789 -1.96946,-4.345647 -4.850316,-7.714785 -8.642578,-10.107421 -3.792366,-2.392515 -8.048547,-3.588803 -12.768555,-3.588868 -6.705761,6.5e-5 -12.475612,2.303123 -17.30957,6.90918 -4.834001,4.606173 -7.250991,12.296595 -7.250977,23.071289 z"
   transform="translate(611.127,1597.306)"
   id="path4248"
   inkscape:connector-curvature="0" />
<path
   d="m 659.12097,1407.307 h 6.001 v 101.504 h -6.001 z"
   id="rect4250"
   inkscape:connector-curvature="0" />
<path
   d="m 633.125,1407.307 h 5.996 v 101.504 h -5.996 z"
   id="rect4252"
   inkscape:connector-curvature="0" />
<path
   d="m 706.123,957.805 2.998,0.498 3.003,1.006 -36.499,137.002 -3.501,0.498 -2.5,-2.5 z"
   id="polygon4254"
   inkscape:connector-curvature="0" />
<path
   d="m 534.121,1136.809 -0.498,-2.5 -1.001,-2.998 137.002,-37.002 2.5,2.5 -1.001,3.496 z"
   id="polygon4256"
   inkscape:connector-curvature="0" />
<path
   d="m 1672.128,1444.807 -6.503,-1.504 101.992,-102.5 5.996,2.5 z"
   id="polygon4258"
   inkscape:connector-curvature="0" />
<path
   d="m 7.6171875,0 v -71.582031 h 9.7167965 l 37.597657,56.201172 v -56.201172 h 9.082031 V 0 H 54.296875 L 16.699219,-56.25 V 0 Z M 80.273438,0 v -71.582031 h 9.472656 V -42.1875 h 37.207036 v -29.394531 h 9.47265 V 0 h -9.47265 V -33.740234 H 89.746094 V 0 Z"
   transform="translate(1670.123,1621.809)"
   id="path4260"
   inkscape:connector-curvature="0" />
<path
   d="M 37.756348,-6.3354492 V 0 H 2.2705078 c -0.04883,-1.5869125 0.2075171,-3.1127899 0.769043,-4.5776367 0.9033164,-2.4169852 2.3498481,-4.7973539 4.3395996,-7.1411133 1.9897367,-2.343736 4.8644896,-5.053694 8.6242676,-8.129883 5.834939,-4.785131 9.777806,-8.575411 11.828613,-11.370849 2.050752,-2.795377 3.076141,-5.438196 3.076172,-7.928467 -3.1e-5,-2.612263 -0.933868,-4.81563 -2.801514,-6.610108 -1.867702,-1.794386 -4.303002,-2.691602 -7.305908,-2.69165 -3.173846,4.8e-5 -5.712905,0.952196 -7.617187,2.856445 -1.904308,1.904341 -2.868663,4.541057 -2.893067,7.910157 l -6.774902,-0.695801 c 0.4638632,-5.053668 2.2094669,-8.904982 5.2368164,-11.553955 3.0273316,-2.648874 7.0922696,-3.973335 12.1948246,-3.973389 5.151341,5.4e-5 9.228485,1.428275 12.231445,4.284668 3.002893,2.856492 4.504357,6.396528 4.504394,10.620117 -3.7e-5,2.148475 -0.43949,4.260289 -1.318359,6.335449 -0.878942,2.075226 -2.33768,4.260283 -4.376221,6.555176 -2.038604,2.294946 -5.426052,5.444357 -10.162353,9.448242 -3.955096,3.320326 -6.494156,5.572521 -7.617188,6.7565921 -1.12306,1.1840908 -2.050793,2.3742752 -2.783203,3.5705567 z"
   transform="translate(1814.535,1640.555)"
   id="path4262"
   inkscape:connector-curvature="0" />
<path
   d="m 1695.117,1529.807 -5.996,1.504 -23.496,-88.008 6.503,1.504 z"
   id="polygon4264"
   inkscape:connector-curvature="0" />
<g
   aria-label="O"
   transform="translate(1492.125,1445.799)"
   id="text4268"><path
     d="m 63.964844,-64.355469 q 4.443359,4.882813 6.787109,11.962891 2.392578,7.080078 2.392578,16.064453 0,8.984375 -2.441406,16.113281 -2.392578,7.080078 -6.738281,11.8164065 -4.492188,4.9316406 -10.644532,7.421875 -6.103515,2.4902344 -13.964843,2.4902344 -7.666016,0 -13.964844,-2.5390625 -6.25,-2.5390625 -10.644531,-7.3730469 -4.394531,-4.8339845 -6.7871096,-11.8652345 -2.34375,-7.03125 -2.34375,-16.064453 0,-8.886719 2.34375,-15.917969 2.3437496,-7.080078 6.8359376,-12.109375 4.296875,-4.785156 10.644531,-7.324218 6.396484,-2.539063 13.916016,-2.539063 7.8125,0 14.013672,2.587891 6.25,2.539062 10.595703,7.27539 z m -0.878907,28.027344 q 0,-14.160156 -6.347656,-21.826172 -6.347656,-7.714844 -17.333984,-7.714844 -11.083985,0 -17.431641,7.714844 -6.298828,7.666016 -6.298828,21.826172 0,14.306641 6.445313,21.923828 6.445312,7.5683595 17.285156,7.5683595 10.839844,0 17.236328,-7.5683595 6.445312,-7.617187 6.445312,-21.923828 z"
     style="font-size:100px;font-family:ArialMT"
     id="path4495"
     inkscape:connector-curvature="0" /></g>
<path
   d="m 1575.625,1435.803 1.503,-5.996 96.504,25.996 -1.504,5.508 z"
   id="polygon4270"
   inkscape:connector-curvature="0" />
<path
   d="m 1582.128,1410.803 1.504,-5.996 96.485,25.996 -1.504,5.508 z"
   id="polygon4272"
   inkscape:connector-curvature="0" />
<path
   d="m 275.625,1346.311 v -6.504 l 123.999,71.504 v 6.992 z"
   id="polygon4274"
   inkscape:connector-curvature="0" />
<path
   d="M 8.0078125,0 V -71.582031 H 17.480469 V -42.1875 H 54.6875 v -29.394531 h 9.472656 V 0 H 54.6875 V -33.740234 H 17.480469 V 0 Z"
   transform="translate(0,1453.817)"
   id="path4276"
   inkscape:connector-curvature="0" />
<path
   d="M 37.756348,-6.3354492 V 0 H 2.2705078 c -0.04883,-1.5869125 0.2075171,-3.1127899 0.769043,-4.5776367 0.9033164,-2.4169852 2.3498481,-4.7973539 4.3395996,-7.1411133 1.9897367,-2.343736 4.8644896,-5.053694 8.6242676,-8.129883 5.834939,-4.785131 9.777806,-8.575411 11.828613,-11.370849 2.050752,-2.795377 3.076141,-5.438196 3.076172,-7.928467 -3.1e-5,-2.612263 -0.933868,-4.81563 -2.801514,-6.610108 -1.867702,-1.794386 -4.303002,-2.691602 -7.305908,-2.69165 -3.173846,4.8e-5 -5.712905,0.952196 -7.617187,2.856445 -1.904308,1.904341 -2.868663,4.541057 -2.893067,7.910157 l -6.774902,-0.695801 c 0.4638632,-5.053668 2.2094669,-8.904982 5.2368164,-11.553955 3.0273316,-2.648874 7.0922696,-3.973335 12.1948246,-3.973389 5.151341,5.4e-5 9.228485,1.428275 12.231445,4.284668 3.002893,2.856492 4.504357,6.396528 4.504394,10.620117 -3.7e-5,2.148475 -0.43949,4.260289 -1.318359,6.335449 -0.878942,2.075226 -2.33768,4.260283 -4.376221,6.555176 -2.038604,2.294946 -5.426052,5.444357 -10.162353,9.448242 -3.955096,3.320326 -6.494156,5.572521 -7.617188,6.7565921 -1.12306,1.1840908 -2.050793,2.3742752 -2.783203,3.5705567 z"
   transform="translate(72.2007,1472.557)"
   id="path4278"
   inkscape:connector-curvature="0" />
<path
   d="m 7.6171875,0 v -71.582031 h 9.7167965 l 37.597657,56.201172 v -56.201172 h 9.082031 V 0 H 54.296875 L 16.699219,-56.25 V 0 Z"
   transform="translate(113.9063,1453.817)"
   id="path4280"
   inkscape:connector-curvature="0" />
<path
   d="m 200.122,1389.807 -2.998,-5 78.501,-45 v 6.504 z"
   id="polygon4282"
   inkscape:connector-curvature="0" />
<path
   d="m 4.8339844,-34.863281 c -4.9e-6,-11.881464 3.1900961,-21.183212 9.5703126,-27.905274 6.380187,-6.721935 14.615856,-10.082935 24.707031,-10.083008 6.608027,7.3e-5 12.565053,1.578848 17.871094,4.736329 5.305927,3.157617 9.350519,7.560282 12.133789,13.208007 2.783131,5.647836 4.174731,12.052452 4.174805,19.213868 -7.4e-5,7.259143 -1.464916,13.753277 -4.394532,19.482421 -2.929753,5.729178 -7.08014,10.0667384 -12.451171,13.0126958 C 51.074168,-0.25227839 45.279903,1.2207019 39.0625,1.2207031 32.324186,1.2207019 26.302057,-0.40690063 20.996094,-3.6621094 15.690088,-6.9173108 11.66991,-11.360666 8.9355469,-16.992188 6.2011657,-22.623675 4.8339795,-28.580701 4.8339844,-34.863281 Z m 9.7656246,0.146484 c -1.4e-5,8.626328 2.319319,15.421569 6.958008,20.385742 4.638646,4.9642024 10.457325,7.4462963 17.456055,7.4462894 7.12886,6.9e-6 12.996367,-2.5065011 17.602539,-7.5195314 4.606059,-5.013001 6.909116,-12.125624 6.90918,-21.337891 -6.4e-5,-5.826781 -0.984763,-10.913039 -2.954102,-15.258789 -1.96946,-4.345647 -4.850316,-7.714785 -8.642578,-10.107421 -3.792366,-2.392515 -8.048547,-3.588803 -12.768555,-3.588868 -6.705761,6.5e-5 -12.475612,2.303123 -17.30957,6.90918 -4.834001,4.606173 -7.250991,12.296595 -7.250977,23.071289 z"
   transform="translate(237.126,1238.299)"
   id="path4284"
   inkscape:connector-curvature="0" />
<path
   d="m 259.62399,1254.807 h 6.001 v 95.498 h -6.001 z"
   id="rect4286"
   inkscape:connector-curvature="0" />
<path
   d="m 285.625,1254.807 h 5.996 v 95.498 h -5.996 z"
   id="rect4288"
   inkscape:connector-curvature="0" />









<g
   id="g123705"><ellipse
     style="fill:#000000"
     ry="42.251259"
     rx="43.81612"
     cy="790.7597"
     cx="1757.5985"
     id="path4505" /><circle
     r="11.736461"
     cy="780.58813"
     cx="1780.2889"
     id="path4507"
     style="fill:#ffffff" /><circle
     r="5.477015"
     cy="816.57996"
     cx="1736.4729"
     id="path4509"
     style="fill:#ffffff" /></g><g
   id="g123713"
   transform="translate(205.89606,7.5326207)"><ellipse
     id="ellipse123707"
     cx="1757.5985"
     cy="790.7597"
     rx="43.81612"
     ry="42.251259"
     style="fill:#000000" /><circle
     style="fill:#ffffff"
     id="circle123709"
     cx="1780.2889"
     cy="780.58813"
     r="11.736461" /><circle
     style="fill:#ffffff"
     id="circle123711"
     cx="1736.4729"
     cy="816.57996"
     r="5.477015" /></g></g>
<flowRoot
   xml:space="preserve"
   id="flowRoot4320"
   style="font-style:normal;font-weight:normal;font-size:74.66666667px;line-height:1.25;font-family:sans-serif;letter-spacing:0px;word-spacing:0px;fill:#000000;fill-opacity:1;stroke:none;"><flowRegion
     id="flowRegion4322"
     style="font-size:74.66666667px;"><rect
       id="rect4324"
       width="632.20404"
       height="178.39421"
       x="297.32367"
       y="256.63727"
       style="font-size:74.66666667px;" /></flowRegion><flowPara
     id="flowPara4326" /></flowRoot><text
   xml:space="preserve"
   style="font-style:normal;font-weight:normal;font-size:85.33333333px;line-height:1.25;font-family:sans-serif;letter-spacing:0px;word-spacing:0px;fill:#000000;fill-opacity:1;stroke:none;"
   x="488.23679"
   y="287.93451"
   id="text4330"><tspan
     sodipodi:role="line"
     id="tspan4328"
     x="488.23679"
     y="324.42773" /></text>
<flowRoot
   xml:space="preserve"
   id="flowRoot4332"
   style="fill:black;fill-opacity:1;stroke:none;font-family:sans-serif;font-style:normal;font-weight:normal;font-size:40px;line-height:1.25;letter-spacing:0px;word-spacing:0px"><flowRegion
     id="flowRegion4334"><rect
       id="rect4336"
       width="707.31738"
       height="169.00504"
       x="475.7179"
       y="194.04282" /></flowRegion><flowPara
     id="flowPara4338"></flowPara></flowRoot><text
   xml:space="preserve"
   style="font-style:normal;font-weight:normal;font-size:85.33333333px;line-height:1.25;font-family:sans-serif;letter-spacing:0px;word-spacing:0px;fill:#000000;fill-opacity:1;stroke:none;"
   x="303.58313"
   y="237.85893"
   id="text4342"><tspan
     sodipodi:role="line"
     id="tspan4340"
     x="303.58313"
     y="274.35214" /></text>
<flowRoot
   xml:space="preserve"
   id="flowRoot4344"
   style="font-style:normal;font-weight:normal;font-size:85.33333333px;line-height:1.25;font-family:sans-serif;letter-spacing:0px;word-spacing:0px;fill:#000000;fill-opacity:1;stroke:none;"><flowRegion
     id="flowRegion4346"
     style="font-size:85.33333333px;"><rect
       id="rect4348"
       width="910.74939"
       height="225.34006"
       x="300.4534"
       y="143.96725"
       style="font-size:85.33333333px;" /></flowRegion><flowPara
     id="flowPara4350" /></flowRoot><flowRoot
   xml:space="preserve"
   id="flowRoot4352"
   style="font-style:normal;font-weight:normal;font-size:85.33333333px;line-height:1.25;font-family:sans-serif;letter-spacing:0px;word-spacing:0px;fill:#000000;fill-opacity:1;stroke:none;"><flowRegion
     id="flowRegion4354"
     style="font-size:85.33333333px;"><rect
       id="rect4356"
       width="1001.5114"
       height="225.34006"
       x="259.767"
       y="162.74559"
       style="font-size:85.33333333px;" /></flowRegion><flowPara
     id="flowPara4358" /></flowRoot><flowRoot
   xml:space="preserve"
   id="flowRoot4392"
   style="fill:black;fill-opacity:1;stroke:none;font-family:Zapfino;font-style:normal;font-weight:normal;font-size:96px;line-height:1.25;letter-spacing:0px;word-spacing:0px;-inkscape-font-specification:Zapfino;font-stretch:normal;font-variant:normal;"><flowRegion
     id="flowRegion4394"
     style="-inkscape-font-specification:Zapfino;font-family:Zapfino;font-weight:normal;font-style:normal;font-stretch:normal;font-variant:normal;"><rect
       id="rect4396"
       width="1092.2733"
       height="300.4534"
       x="215.95088"
       y="128.31863"
       style="-inkscape-font-specification:Zapfino;font-family:Zapfino;font-weight:normal;font-style:normal;font-stretch:normal;font-variant:normal;" /></flowRegion><flowPara
     id="flowPara4398"></flowPara></flowRoot><g
   aria-label="Cuddle me!"
   transform="translate(-100.15113,409.9937)"
   style="font-style:normal;font-variant:normal;font-weight:normal;font-stretch:normal;font-size:96px;line-height:1.25;font-family:Zapfino;-inkscape-font-specification:Zapfino;letter-spacing:0px;word-spacing:0px;fill:#000000;fill-opacity:1;stroke:none"
   id="flowRoot4400"><path
     d="m 411.36719,312.14008 q -5.15625,2.25 -9.375,4.21875 -4.125,1.96875 -10.875,4.125 -5.71875,1.78125 -12.46875,3 -6.65625,1.3125 -14.71875,1.3125 -15.1875,0 -27.65625,-4.21875 -12.375,-4.3125 -21.5625,-13.40625 -9,-8.90625 -14.0625,-22.59375 -5.0625,-13.78125 -5.0625,-31.96875 0,-17.25 4.875,-30.84375 4.875,-13.59375 14.0625,-22.96875 8.90625,-9.09375 21.46875,-13.875 12.65625,-4.78125 28.03125,-4.78125 11.25,0 22.40625,2.71875 11.25,2.71875 24.9375,9.5625 v 22.03125 h -1.40625 q -11.53125,-9.65625 -22.875,-14.0625 -11.34375,-4.40625 -24.28125,-4.40625 -10.59375,0 -19.125,3.46875 -8.4375,3.375 -15.09375,10.59375 -6.46875,7.03125 -10.125,17.8125 -3.5625,10.6875 -3.5625,24.75 0,14.71875 3.9375,25.3125 4.03125,10.59375 10.3125,17.25 6.5625,6.9375 15.28125,10.3125 8.8125,3.28125 18.5625,3.28125 13.40625,0 25.125,-4.59375 11.71875,-4.59375 21.9375,-13.78125 h 1.3125 z"
     style="font-style:normal;font-variant:normal;font-weight:normal;font-stretch:normal;font-size:192px;font-family:Symbol;-inkscape-font-specification:Symbol"
     id="path123717" /><path
     d="m 523.21094,322.26508 h -17.625 v -11.625 q -8.90625,7.03125 -17.0625,10.78125 -8.15625,3.75 -18,3.75 -16.5,0 -25.6875,-10.03125 -9.1875,-10.125 -9.1875,-29.625 v -67.96875 h 17.625 v 59.625 q 0,7.96875 0.75,13.6875 0.75,5.625 3.1875,9.65625 2.53125,4.125 6.5625,6 4.03125,1.875 11.71875,1.875 6.84375,0 14.90625,-3.5625 8.15625,-3.5625 15.1875,-9.09375 v -78.1875 h 17.625 z"
     style="font-style:normal;font-variant:normal;font-weight:normal;font-stretch:normal;font-size:192px;font-family:Symbol;-inkscape-font-specification:Symbol"
     id="path123719" /><path
     d="m 642.83594,322.26508 h -17.625 v -10.96875 q -7.59375,6.5625 -15.84375,10.21875 -8.25,3.65625 -17.90625,3.65625 -18.75,0 -29.8125,-14.4375 -10.96875,-14.4375 -10.96875,-40.03125 0,-13.3125 3.75,-23.71875 3.84375,-10.40625 10.3125,-17.71875 6.375,-7.125 14.8125,-10.875 8.53125,-3.75 17.625,-3.75 8.25,0 14.625,1.78125 6.375,1.6875 13.40625,5.34375 v -45.375 h 17.625 z m -17.625,-25.78125 v -60.09375 q -7.125,-3.1875 -12.75,-4.40625 -5.625,-1.21875 -12.28125,-1.21875 -14.8125,0 -23.0625,10.3125 -8.25,10.3125 -8.25,29.25 0,18.65625 6.375,28.40625 6.375,9.65625 20.4375,9.65625 7.5,0 15.1875,-3.28125 7.6875,-3.375 14.34375,-8.625 z"
     style="font-style:normal;font-variant:normal;font-weight:normal;font-stretch:normal;font-size:192px;font-family:Symbol;-inkscape-font-specification:Symbol"
     id="path123721" /><path
     d="m 762.46094,322.26508 h -17.625 v -10.96875 q -7.59375,6.5625 -15.84375,10.21875 -8.25,3.65625 -17.90625,3.65625 -18.75,0 -29.8125,-14.4375 -10.96875,-14.4375 -10.96875,-40.03125 0,-13.3125 3.75,-23.71875 3.84375,-10.40625 10.3125,-17.71875 6.375,-7.125 14.8125,-10.875 8.53125,-3.75 17.625,-3.75 8.25,0 14.625,1.78125 6.375,1.6875 13.40625,5.34375 v -45.375 h 17.625 z m -17.625,-25.78125 v -60.09375 q -7.125,-3.1875 -12.75,-4.40625 -5.625,-1.21875 -12.28125,-1.21875 -14.8125,0 -23.0625,10.3125 -8.25,10.3125 -8.25,29.25 0,18.65625 6.375,28.40625 6.375,9.65625 20.4375,9.65625 7.5,0 15.1875,-3.28125 7.6875,-3.375 14.34375,-8.625 z"
     style="font-style:normal;font-variant:normal;font-weight:normal;font-stretch:normal;font-size:192px;font-family:Symbol;-inkscape-font-specification:Symbol"
     id="path123723" /><path
     d="m 814.96094,322.26508 h -17.625 v -145.875 h 17.625 z"
     style="font-style:normal;font-variant:normal;font-weight:normal;font-stretch:normal;font-size:192px;font-family:Symbol;-inkscape-font-specification:Symbol"
     id="path123725" /><path
     d="m 937.67969,271.73383 h -77.15625 q 0,9.65625 2.90625,16.875 2.90625,7.125 7.96875,11.71875 4.875,4.5 11.53125,6.75 6.75,2.25 14.8125,2.25 10.6875,0 21.46875,-4.21875 10.875,-4.3125 15.46875,-8.4375 h 0.9375 v 19.21875 q -8.90625,3.75 -18.1875,6.28125 -9.28125,2.53125 -19.5,2.53125 -26.0625,0 -40.6875,-14.0625 -14.625,-14.15625 -14.625,-40.125 0,-25.6875 13.96875,-40.78125 14.0625,-15.09375 36.9375,-15.09375 21.1875,0 32.625,12.375 11.53125,12.375 11.53125,35.15625 z m -17.15625,-13.5 q -0.0937,-13.875 -7.03125,-21.46875 -6.84375,-7.59375 -20.90625,-7.59375 -14.15625,0 -22.59375,8.34375 -8.34375,8.34375 -9.46875,20.71875 z"
     style="font-style:normal;font-variant:normal;font-weight:normal;font-stretch:normal;font-size:192px;font-family:Symbol;-inkscape-font-specification:Symbol"
     id="path123727" /><path
     d="m 1184.7109,322.26508 h -17.625 v -59.625 q 0,-6.75 -0.6562,-13.03125 -0.5625,-6.28125 -2.5313,-10.03125 -2.1562,-4.03125 -6.1875,-6.09375 -4.0312,-2.0625 -11.625,-2.0625 -7.4062,0 -14.8125,3.75 -7.4062,3.65625 -14.8125,9.375 0.2813,2.15625 0.4688,5.0625 0.1875,2.8125 0.1875,5.625 v 67.03125 h -17.625 v -59.625 q 0,-6.9375 -0.6563,-13.125 -0.5625,-6.28125 -2.5312,-10.03125 -2.1563,-4.03125 -6.1875,-6 -4.0313,-2.0625 -11.625,-2.0625 -7.2188,0 -14.5313,3.5625 -7.2187,3.5625 -14.4375,9.09375 v 78.1875 h -17.625 V 217.54633 h 17.625 v 11.625 q 8.25,-6.84375 16.4063,-10.6875 8.25,-3.84375 17.5312,-3.84375 10.6875,0 18.0938,4.5 7.5,4.5 11.1562,12.46875 10.6875,-9 19.5,-12.9375 8.8125,-4.03125 18.8438,-4.03125 17.25,0 25.4062,10.5 8.25,10.40625 8.25,29.15625 z"
     style="font-style:normal;font-variant:normal;font-weight:normal;font-stretch:normal;font-size:192px;font-family:Symbol;-inkscape-font-specification:Symbol"
     id="path123729" /><path
     d="m 1306.3047,271.73383 h -77.1563 q 0,9.65625 2.9063,16.875 2.9062,7.125 7.9687,11.71875 4.875,4.5 11.5313,6.75 6.75,2.25 14.8125,2.25 10.6875,0 21.4687,-4.21875 10.875,-4.3125 15.4688,-8.4375 h 0.9375 v 19.21875 q -8.9063,3.75 -18.1875,6.28125 -9.2813,2.53125 -19.5,2.53125 -26.0625,0 -40.6875,-14.0625 -14.625,-14.15625 -14.625,-40.125 0,-25.6875 13.9687,-40.78125 14.0625,-15.09375 36.9375,-15.09375 21.1875,0 32.625,12.375 11.5313,12.375 11.5313,35.15625 z m -17.1563,-13.5 q -0.094,-13.875 -7.0312,-21.46875 -6.8438,-7.59375 -20.9063,-7.59375 -14.1562,0 -22.5937,8.34375 -8.3438,8.34375 -9.4688,20.71875 z"
     style="font-style:normal;font-variant:normal;font-weight:normal;font-stretch:normal;font-size:192px;font-family:Symbol;-inkscape-font-specification:Symbol"
     id="path123731" /><path
     d="m 1336.3984,314.39008 q 0,-4.5 3.2813,-7.875 3.375,-3.46875 7.875,-3.46875 4.5937,0 7.9687,3.375 3.375,3.375 3.375,7.96875 0,4.5 -3.4687,7.875 -3.375,3.28125 -7.875,3.28125 -4.3125,0 -7.7813,-3.375 -3.375,-3.46875 -3.375,-7.78125 z m 12.8438,-25.875 h -3.8438 l -7.875,-73.96875 q -0.2812,-2.0625 -0.4687,-4.40625 -0.094,-2.4375 -0.094,-4.78125 0,-6.1875 2.8125,-9.375 2.8125,-3.28125 8.1563,-3.28125 5.3437,0 8.1562,3.28125 2.8125,3.1875 2.8125,9.375 0,2.4375 -0.1875,4.78125 -0.094,2.25 -0.375,4.40625 z"
     style="font-style:normal;font-variant:normal;font-weight:normal;font-stretch:normal;font-size:192px;font-family:Symbol;-inkscape-font-specification:Symbol"
     id="path123733" /></g><ellipse
   style="fill:#ffaaaa;stroke-width:0.85096294"
   id="path4533"
   cx="1778.442"
   cy="900.0639"
   rx="32.862091"
   ry="25.037783" /><path
   style="fill:#000000;stroke-width:0.63450468"
   d="m 1992.8501,886.64877 c 0,19.3027 -32.361,35.04898 -72.7582,35.40286 -40.3972,0.35388 -73.9448,-14.81503 -75.4261,-34.10476 32.4995,26.33046 92.8548,45.71711 148.1843,-1.2981 z"
   id="path4577"
   inkscape:connector-curvature="0"
   sodipodi:nodetypes="cscc" /><ellipse
   ry="25.037783"
   rx="32.862091"
   cy="909.04327"
   cx="2054.4751"
   id="ellipse123715"
   style="fill:#ffaaaa;stroke-width:0.85096294" /></svg>