<?xml version="1.0" encoding="UTF-8" standalone="no"?>
<svg
   xmlns:dc="http://purl.org/dc/elements/1.1/"
   xmlns:cc="http://creativecommons.org/ns#"
   xmlns:rdf="http://www.w3.org/1999/02/22-rdf-syntax-ns#"
   xmlns:svg="http://www.w3.org/2000/svg"
   xmlns="http://www.w3.org/2000/svg"
   xmlns:xlink="http://www.w3.org/1999/xlink"
   xmlns:sodipodi="http://sodipodi.sourceforge.net/DTD/sodipodi-0.dtd"
   xmlns:inkscape="http://www.inkscape.org/namespaces/inkscape"
   inkscape:version="1.0 (4035a4f, 2020-05-01)"
   sodipodi:docname="Paracetamol-skeletal.svg"
   id="svg1888"
   xml:space="preserve"
   enable-background="new 0 -0.2 432 232"
   viewBox="0 -0.2 381.54337 30.254251"
   height="30.254251"
   width="381.54337"
   version="1.1"><metadata
   id="metadata1892"><rdf:RDF><cc:Work
       rdf:about=""><dc:format>image/svg+xml</dc:format><dc:type
         rdf:resource="http://purl.org/dc/dcmitype/StillImage" /><dc:title></dc:title></cc:Work></rdf:RDF></metadata><sodipodi:namedview
   fit-margin-bottom="0"
   fit-margin-right="0"
   fit-margin-left="0"
   fit-margin-top="0"
   inkscape:current-layer="svg1888"
   inkscape:window-maximized="0"
   inkscape:window-y="23"
   inkscape:window-x="0"
   inkscape:cy="-126.4573"
   inkscape:cx="187.42759"
   inkscape:zoom="1.2262931"
   showgrid="false"
   id="namedview1890"
   inkscape:window-height="755"
   inkscape:window-width="1280"
   inkscape:pageshadow="2"
   inkscape:pageopacity="0"
   guidetolerance="10"
   gridtolerance="10"
   objecttolerance="10"
   borderopacity="1"
   bordercolor="#666666"
   pagecolor="#ffffff" />
<defs
   id="defs1808">
</defs>
<g
   transform="translate(-27.658865,-251.74591)"
   id="g1816">
	<defs
   id="defs1811">
		<path
   d="m 0,3.8 v 0 0 z M 434,224.2 M 0,3.8"
   id="XMLID_2_" />
	</defs>
	<clipPath
   id="XMLID_1_">
		<use
   height="100%"
   width="100%"
   y="0"
   x="0"
   id="use1813"
   xlink:href="#XMLID_2_" />
	</clipPath>
</g>
<line
   id="line1818"
   y2="-155.44591"
   x2="88.641136"
   y1="-83.045914"
   x1="88.641136"
   stroke-miterlimit="10"
   stroke-linecap="square"
   stroke-width="0.12"
   stroke="#000000"
   fill="none" />
<polyline
   transform="translate(-27.658865,-251.74591)"
   id="polyline1820"
   points="117.8,168 116.3,168.9 114.7,168 114.7,95.2 117.8,97 117.8,168 "
   clip-rule="evenodd"
   fill-rule="evenodd" />
<line
   id="line1822"
   y2="-150.34592"
   x2="97.341133"
   y1="-88.145905"
   x1="97.341133"
   stroke-miterlimit="10"
   stroke-linecap="square"
   stroke-width="0.12"
   stroke="#000000"
   fill="none" />
<polyline
   transform="translate(-27.658865,-251.74591)"
   id="polyline1824"
   points="126.5,163.9 123.5,163.9 123.5,101.2 126.5,101.2 126.5,163.9 "
   clip-rule="evenodd"
   fill-rule="evenodd" />
<line
   id="line1826"
   y2="-82.745911"
   x2="88.841133"
   y1="-46.745911"
   x1="151.54114"
   stroke-miterlimit="10"
   stroke-linecap="square"
   stroke-width="0.12"
   stroke="#000000"
   fill="none" />
<polyline
   transform="translate(-27.658865,-251.74591)"
   id="polyline1828"
   points="179.3,203.5 179.3,207 116.3,170.6 116.3,168.9 117.8,168 179.3,203.5   "
   clip-rule="evenodd"
   fill-rule="evenodd" />
<line
   id="line1830"
   y2="-46.745911"
   x2="151.84114"
   y1="-82.745911"
   x1="214.34114"
   stroke-miterlimit="10"
   stroke-linecap="square"
   stroke-width="0.12"
   stroke="#000000"
   fill="none" />
<polyline
   transform="translate(-27.658865,-251.74591)"
   id="polyline1832"
   points="240.7,168 243.8,169.8 179.3,207 179.3,203.5 240.7,168 "
   clip-rule="evenodd"
   fill-rule="evenodd" />
<line
   id="line1834"
   y2="-56.745911"
   x2="151.74113"
   y1="-87.745911"
   x1="205.74113"
   stroke-miterlimit="10"
   stroke-linecap="square"
   stroke-width="0.12"
   stroke="#000000"
   fill="none" />
<polyline
   transform="translate(-27.658865,-251.74591)"
   id="polyline1836"
   points="232.8,162.6 234.4,165.2 180,196.5 178.6,193.9 232.8,162.6 "
   clip-rule="evenodd"
   fill-rule="evenodd" />
<line
   id="line1838"
   y2="-83.045914"
   x2="214.64114"
   y1="-155.44591"
   x1="214.64114"
   stroke-miterlimit="10"
   stroke-linecap="square"
   stroke-width="0.12"
   stroke="#000000"
   fill="none" />
<polyline
   transform="translate(-27.658865,-251.74591)"
   id="polyline1840"
   points="240.7,97 242.3,96.2 243.8,97 243.8,169.8 240.7,168 240.7,97 "
   clip-rule="evenodd"
   fill-rule="evenodd" />
<line
   id="line1842"
   y2="-155.74591"
   x2="214.34114"
   y1="-191.74591"
   x1="151.84114"
   stroke-miterlimit="10"
   stroke-linecap="square"
   stroke-width="0.12"
   stroke="#000000"
   fill="none" />
<polyline
   transform="translate(-27.658865,-251.74591)"
   id="polyline1844"
   points="179.3,61.5 179.3,58 242.3,94.4 242.3,96.2 240.7,97 179.3,61.5 "
   clip-rule="evenodd"
   fill-rule="evenodd" />
<line
   id="line1846"
   y2="-150.74591"
   x2="205.74113"
   y1="-181.74591"
   x1="151.74113"
   stroke-miterlimit="10"
   stroke-linecap="square"
   stroke-width="0.12"
   stroke="#000000"
   fill="none" />
<polyline
   transform="translate(-27.658865,-251.74591)"
   id="polyline1848"
   points="178.6,71.1 180,68.6 234.4,99.9 232.8,102.6 178.6,71.1 "
   clip-rule="evenodd"
   fill-rule="evenodd" />
<line
   id="line1850"
   y2="-191.74591"
   x2="151.54114"
   y1="-155.74591"
   x1="88.841133"
   stroke-miterlimit="10"
   stroke-linecap="square"
   stroke-width="0.12"
   stroke="#000000"
   fill="none" />
<polyline
   transform="translate(-27.658865,-251.74591)"
   id="polyline1852"
   points="117.8,97 114.7,95.2 179.3,58 179.3,61.5 117.8,97 "
   clip-rule="evenodd"
   fill-rule="evenodd" />
<g
   style="font-size:45px;font-family:ArialMT"
   id="text1854"
   transform="translate(-25.498665,-30.136512)"
   aria-label="H"><path
     id="path2455"
     style="font-size:45px;font-family:ArialMT"
     d="M 29.421387,0 H 25.070801 V -16.018066 H 8.7451172 V 0 h -4.350586 v -32.717285 h 4.350586 v 12.832031 H 25.070801 v -12.832031 h 4.350586 z" /></g>
<g
   style="font-size:45px;font-family:ArialMT"
   id="text1856"
   transform="translate(6.9012353,-30.136512)"
   aria-label="O"><path
     id="path2458"
     style="font-size:45px;font-family:ArialMT"
     d="m 28.78418,-28.959961 q 1.999511,2.197266 3.054199,5.383301 1.07666,3.186035 1.07666,7.229004 0,4.042968 -1.098633,7.2509763 -1.07666,3.1860352 -3.032226,5.3173828 -2.021485,2.2192383 -4.790039,3.33984377 -2.746582,1.12060547 -6.28418,1.12060547 -3.449707,0 -6.28418,-1.14257812 Q 8.6132813,-1.6040039 6.6357422,-3.7792969 4.6582031,-5.9545898 3.581543,-9.1186523 2.5268555,-12.282715 2.5268555,-16.347656 q 0,-3.999024 1.0546875,-7.163086 1.0546875,-3.186035 3.0761718,-5.449219 1.9335938,-2.15332 4.7900392,-3.295898 2.878418,-1.142578 6.262207,-1.142578 3.515625,0 6.306152,1.16455 2.8125,1.142578 4.768067,3.273926 z m -0.395508,12.612305 q 0,-6.372071 -2.856445,-9.821778 -2.856446,-3.471679 -7.800293,-3.471679 -4.987793,0 -7.8442387,3.471679 -2.8344726,3.449707 -2.8344726,9.821778 0,6.437988 2.9003906,9.8657224 2.9003907,3.4057617 7.7783207,3.4057617 4.877929,0 7.756347,-3.4057617 2.900391,-3.4277344 2.900391,-9.8657224 z" /></g>
<line
   id="line1858"
   y2="-82.745911"
   x2="88.54113"
   y1="-55.145905"
   x1="40.541134"
   stroke-miterlimit="10"
   stroke-linecap="square"
   stroke-width="0.12"
   stroke="#000000"
   fill="none" />
<polyline
   transform="translate(-27.658865,-251.74591)"
   id="polyline1860"
   points="68.6,198.1 67.2,195.4 114.7,168 116.3,168.9 116.3,170.6 68.6,198.1 "
   clip-rule="evenodd"
   fill-rule="evenodd" />
<g
   style="font-size:45px;font-family:ArialMT"
   id="text1862"
   transform="translate(261.30114,-213.13651)"
   aria-label="H"><path
     id="path2461"
     style="font-size:45px;font-family:ArialMT"
     d="M 29.421387,0 H 25.070801 V -16.018066 H 8.7451172 V 0 h -4.350586 v -32.717285 h 4.350586 v 12.832031 H 25.070801 v -12.832031 h 4.350586 z" /></g>
<g
   style="font-size:45px;font-family:ArialMT"
   id="text1864"
   transform="translate(261.30114,-175.57601)"
   aria-label="N"><path
     id="path2464"
     style="font-size:45px;font-family:ArialMT"
     d="M 29.355469,0 H 23.972168 L 8.4594727,-29.267578 V 0 H 4.3945312 v -32.717285 h 6.7456058 l 14.15039,26.7187498 V -32.717285 h 4.064942 z" /></g>
<line
   id="line1866"
   y2="-155.74591"
   x2="214.74113"
   y1="-182.44591"
   x1="261.14111"
   stroke-miterlimit="10"
   stroke-linecap="square"
   stroke-width="0.12"
   stroke="#000000"
   fill="none" />
<polyline
   transform="translate(-27.658865,-251.74591)"
   id="polyline1868"
   points="288.2,67.9 289.8,70.5 243.8,97 242.3,96.2 242.3,94.4 288.2,67.9 "
   clip-rule="evenodd"
   fill-rule="evenodd" />
<line
   id="line1870"
   y2="-182.54591"
   x2="293.74112"
   y1="-155.74591"
   x1="340.34113"
   stroke-miterlimit="10"
   stroke-linecap="square"
   stroke-width="0.12"
   stroke="#000000"
   fill="none" />
<polyline
   transform="translate(-27.658865,-251.74591)"
   id="polyline1872"
   points="368.2,94.4 368.2,97.9 320.5,70.4 322,67.8 368.2,94.4 "
   clip-rule="evenodd"
   fill-rule="evenodd" />
<line
   id="line1874"
   y2="-155.74591"
   x2="340.74112"
   y1="-191.74591"
   x1="403.24112"
   stroke-miterlimit="10"
   stroke-linecap="square"
   stroke-width="0.12"
   stroke="#000000"
   fill="none" />
<polyline
   transform="translate(-27.658865,-251.74591)"
   id="polyline1876"
   points="430.4,58.5 431.2,59.8 431.9,61.2 368.2,97.9 368.2,94.4 430.4,58.5 "
   clip-rule="evenodd"
   fill-rule="evenodd" />
<g
   style="font-size:45px;font-family:ArialMT"
   id="text1878"
   transform="translate(322.98174,-66.495912)"
   aria-label="O"><path
     id="path2467"
     style="font-size:45px;font-family:ArialMT"
     d="m 28.78418,-28.959961 q 1.999511,2.197266 3.054199,5.383301 1.07666,3.186035 1.07666,7.229004 0,4.042968 -1.098633,7.2509763 -1.07666,3.1860352 -3.032226,5.3173828 -2.021485,2.2192383 -4.790039,3.33984377 -2.746582,1.12060547 -6.28418,1.12060547 -3.449707,0 -6.28418,-1.14257812 Q 8.6132813,-1.6040039 6.6357422,-3.7792969 4.6582031,-5.9545898 3.581543,-9.1186523 2.5268555,-12.282715 2.5268555,-16.347656 q 0,-3.999024 1.0546875,-7.163086 1.0546875,-3.186035 3.0761718,-5.449219 1.9335938,-2.15332 4.7900392,-3.295898 2.878418,-1.142578 6.262207,-1.142578 3.515625,0 6.306152,1.16455 2.8125,1.142578 4.768067,3.273926 z m -0.395508,12.612305 q 0,-6.372071 -2.856445,-9.821778 -2.856446,-3.471679 -7.800293,-3.471679 -4.987793,0 -7.8442387,3.471679 -2.8344726,3.449707 -2.8344726,9.821778 0,6.437988 2.9003906,9.8657224 2.9003907,3.4057617 7.7783207,3.4057617 4.877929,0 7.756347,-3.4057617 2.900391,-3.4277344 2.900391,-9.8657224 z" /></g>
<line
   id="line1880"
   y2="-157.94591"
   x2="344.94113"
   y1="-101.54591"
   x1="344.94113"
   stroke-miterlimit="10"
   stroke-linecap="square"
   stroke-width="0.12"
   stroke="#000000"
   fill="none" />
<polyline
   transform="translate(-27.658865,-251.74591)"
   id="polyline1882"
   points="374,150.3 371,150.3 371,93.7 374,93.7 374,150.3 "
   clip-rule="evenodd"
   fill-rule="evenodd" />
<line
   id="line1884"
   y2="-157.94591"
   x2="336.14111"
   y1="-101.54591"
   x1="336.14111"
   stroke-miterlimit="10"
   stroke-linecap="square"
   stroke-width="0.12"
   stroke="#000000"
   fill="none" />
<polyline
   transform="translate(-27.658865,-251.74591)"
   id="polyline1886"
   points="365.4,150.3 362.3,150.3 362.3,93.7 365.4,93.7 365.4,150.3 "
   clip-rule="evenodd"
   fill-rule="evenodd" />
<path
   style="overflow:visible;fill:none;stroke:#000000;stroke-width:7.13811;stroke-linecap:round;stroke-linejoin:round;stroke-miterlimit:4;stroke-dasharray:none;stroke-opacity:1"
   d="m 116.93815,-133.01365 12.93385,10.01206 -12.25321,7.15148"
   id="path4840"
   inkscape:connector-curvature="0" /><path
   inkscape:connector-curvature="0"
   id="path5388"
   d="m 183.62804,-133.01365 -12.93385,10.01206 12.25321,7.15148"
   style="overflow:visible;fill:none;stroke:#000000;stroke-width:7.13811;stroke-linecap:round;stroke-linejoin:round;stroke-miterlimit:4;stroke-dasharray:none;stroke-opacity:1" /><path
   style="overflow:visible;fill:none;stroke:#000000;stroke-width:7.13811;stroke-linecap:round;stroke-linejoin:round;stroke-miterlimit:4;stroke-dasharray:none;stroke-opacity:1"
   d="m 120.00151,-94.038092 11.23175,-7.866628 10.55133,7.509048 10.89154,-7.151468 11.23195,7.151468 10.89174,-6.793908 9.18985,5.363618"
   id="path5392"
   inkscape:connector-curvature="0" /><g
   aria-label="Just one of those days ... "
   transform="matrix(1.2251993,0,0,1.2251993,5646.6305,-180.37552)"
   style="font-style:normal;font-variant:normal;font-weight:normal;font-stretch:normal;font-size:29.3333px;line-height:1.25;font-family:'PingFang SC';-inkscape-font-specification:'PingFang SC';letter-spacing:0px;word-spacing:0px;overflow:visible;fill:#000000;fill-opacity:1;stroke:none;stroke-width:1.00803;stroke-miterlimit:4;stroke-dasharray:none"
   id="flowRoot5394"><path
     d="m -4599.4379,147.43146 v 12.88 c 0,1.57333 -0.2933,2.72 -0.8533,3.44 -0.5867,0.74667 -1.52,1.14667 -2.8,1.14667 -2.32,0 -3.4667,-1.30667 -3.4667,-3.86667 v -0.64 h -2.1866 v 0.66667 c 0,1.86666 0.48,3.30666 1.4933,4.32 0.96,0.96 2.32,1.46666 4.1067,1.46666 2.1066,0 3.6533,-0.58666 4.6133,-1.76 0.8533,-1.06666 1.28,-2.61333 1.28,-4.69333 v -12.96 z"
     style="font-size:26.6667px;stroke-width:1.00803;stroke-miterlimit:4;stroke-dasharray:none"
     id="path5406" /><path
     d="m -4593.6891,152.68479 v 8.53334 c 0,3.73333 1.6533,5.62666 5.0133,5.62666 1.8667,0 3.36,-0.85333 4.48,-2.50666 v 2.13333 h 2.1334 v -13.78667 h -2.1334 v 8.4 c -0.16,1.17334 -0.6133,2.13334 -1.36,2.88 -0.72,0.69334 -1.5466,1.06667 -2.4533,1.06667 -1.2533,0 -2.16,-0.34667 -2.72,-0.98667 -0.56,-0.64 -0.8267,-1.62666 -0.8267,-2.93333 v -8.42667 z"
     style="font-size:26.6667px;stroke-width:1.00803;stroke-miterlimit:4;stroke-dasharray:none"
     id="path5408" /><path
     d="m -4573.8612,152.31146 c -1.5467,0 -2.8267,0.34667 -3.7867,1.04 -1.04,0.69333 -1.5466,1.6 -1.5466,2.77333 0,1.17334 0.5066,2.05334 1.5733,2.69334 0.64,0.42666 1.7867,0.82666 3.4133,1.22666 1.4934,0.37334 2.48,0.66667 2.9334,0.88 0.8533,0.42667 1.3066,1.01334 1.3066,1.78667 0,1.54667 -1.2533,2.34667 -3.7066,2.34667 -1.1734,0 -2.0534,-0.21334 -2.64,-0.64 -0.5867,-0.48 -0.9867,-1.25334 -1.1467,-2.34667 h -2.08 c 0.32,3.17333 2.2933,4.77333 5.92,4.77333 3.8933,0 5.84,-1.44 5.84,-4.26666 0,-1.2 -0.56,-2.13334 -1.6533,-2.82667 -0.72,-0.45333 -1.8934,-0.88 -3.5467,-1.28 -1.3867,-0.37333 -2.3467,-0.66667 -2.8533,-0.90667 -0.8,-0.4 -1.1734,-0.90666 -1.1734,-1.49333 0,-0.61333 0.2934,-1.09333 0.88,-1.44 0.5334,-0.37333 1.28,-0.53333 2.24,-0.53333 1.0934,0 1.9467,0.21333 2.5334,0.64 0.5333,0.37333 0.88,1.01333 1.0666,1.86666 h 2.08 c -0.3733,-2.88 -2.24,-4.29333 -5.6533,-4.29333 z"
     style="font-size:26.6667px;stroke-width:1.00803;stroke-miterlimit:4;stroke-dasharray:none"
     id="path5410" /><path
     d="m -4561.5716,148.23146 -2.1067,0.88 v 3.57333 h -2.7733 v 1.78667 h 2.7733 v 8.77333 c 0,1.04 0.2134,1.81334 0.6667,2.34667 0.48,0.58667 1.3067,0.88 2.4267,0.88 h 2.08 v -1.78667 h -1.76 c -0.48,0 -0.8267,-0.13333 -1.0134,-0.34666 -0.2133,-0.21334 -0.2933,-0.58667 -0.2933,-1.09334 v -8.77333 h 3.4133 v -1.78667 h -3.4133 z"
     style="font-size:26.6667px;stroke-width:1.00803;stroke-miterlimit:4;stroke-dasharray:none"
     id="path5412" /><path
     d="m -4540.7062,152.31146 c -2.08,0 -3.7067,0.69333 -4.9333,2.13333 -1.1734,1.36 -1.76,3.06667 -1.76,5.14667 0,2.05333 0.5866,3.76 1.76,5.09333 1.2266,1.44 2.8533,2.16 4.9333,2.16 2.0533,0 3.7067,-0.72 4.96,-2.16 1.1467,-1.33333 1.7333,-3.04 1.7333,-5.09333 0,-2.08 -0.5866,-3.78667 -1.76,-5.14667 -1.2266,-1.44 -2.88,-2.13333 -4.9333,-2.13333 z m 0,1.78667 c 1.44,0 2.5867,0.56 3.44,1.68 0.72,1.01333 1.0933,2.26666 1.0933,3.81333 0,1.49333 -0.3733,2.77333 -1.0933,3.78667 -0.8533,1.12 -2,1.68 -3.44,1.68 -1.4667,0 -2.6133,-0.56 -3.4133,-1.68 -0.7467,-1.01334 -1.0934,-2.26667 -1.0934,-3.78667 0,-1.54667 0.3467,-2.8 1.0934,-3.81333 0.8,-1.12 1.9466,-1.68 3.4133,-1.68 z"
     style="font-size:26.6667px;stroke-width:1.00803;stroke-miterlimit:4;stroke-dasharray:none"
     id="path5414" /><path
     d="m -4524.7879,152.31146 c -0.9066,0 -1.7333,0.21333 -2.48,0.64 -0.7466,0.4 -1.36,0.98667 -1.84,1.76 v -2.02667 h -2.1333 v 13.78667 h 2.1333 v -8.32 c 0.08,-1.25333 0.48,-2.24 1.2267,-2.98667 0.6933,-0.69333 1.52,-1.04 2.48,-1.04 2.4,0 3.6267,1.33334 3.6267,4.02667 v 8.32 h 2.1333 v -8.48 c 0,-3.78667 -1.7333,-5.68 -5.1467,-5.68 z"
     style="font-size:26.6667px;stroke-width:1.00803;stroke-miterlimit:4;stroke-dasharray:none"
     id="path5416" /><path
     d="m -4510.6654,152.31146 c -2,0 -3.5733,0.72 -4.7466,2.16 -1.1734,1.36 -1.7334,3.06667 -1.7334,5.09333 0,2.24 0.5867,4 1.8134,5.33334 1.1733,1.28 2.7733,1.94666 4.7466,1.94666 1.7867,0 3.2534,-0.53333 4.4,-1.54666 0.9334,-0.85334 1.5467,-1.92 1.8667,-3.25334 h -2.1333 c -0.3467,0.96 -0.8,1.68 -1.3867,2.16 -0.6933,0.56 -1.6267,0.85334 -2.7467,0.85334 -1.3066,0 -2.3466,-0.42667 -3.0933,-1.28 -0.7467,-0.85334 -1.1467,-2.05334 -1.2533,-3.6 h 10.88 c -0.053,-2.4 -0.5867,-4.29334 -1.6,-5.62667 -1.12,-1.49333 -2.8,-2.24 -5.0134,-2.24 z m 0.053,1.78667 c 2.6133,0 4.08,1.46666 4.3466,4.42666 h -8.6133 c 0.1333,-1.36 0.56,-2.42666 1.3067,-3.22666 0.7466,-0.8 1.7333,-1.2 2.96,-1.2 z"
     style="font-size:26.6667px;stroke-width:1.00803;stroke-miterlimit:4;stroke-dasharray:none"
     id="path5418" /><path
     d="m -4486.4874,152.31146 c -2.08,0 -3.7067,0.69333 -4.9334,2.13333 -1.1733,1.36 -1.76,3.06667 -1.76,5.14667 0,2.05333 0.5867,3.76 1.76,5.09333 1.2267,1.44 2.8534,2.16 4.9334,2.16 2.0533,0 3.7066,-0.72 4.96,-2.16 1.1466,-1.33333 1.7333,-3.04 1.7333,-5.09333 0,-2.08 -0.5867,-3.78667 -1.76,-5.14667 -1.2267,-1.44 -2.88,-2.13333 -4.9333,-2.13333 z m 0,1.78667 c 1.44,0 2.5866,0.56 3.44,1.68 0.72,1.01333 1.0933,2.26666 1.0933,3.81333 0,1.49333 -0.3733,2.77333 -1.0933,3.78667 -0.8534,1.12 -2,1.68 -3.44,1.68 -1.4667,0 -2.6134,-0.56 -3.4134,-1.68 -0.7466,-1.01334 -1.0933,-2.26667 -1.0933,-3.78667 0,-1.54667 0.3467,-2.8 1.0933,-3.81333 0.8,-1.12 1.9467,-1.68 3.4134,-1.68 z"
     style="font-size:26.6667px;stroke-width:1.00803;stroke-miterlimit:4;stroke-dasharray:none"
     id="path5420" /><path
     d="m -4471.5024,147.43146 c -1.1734,0 -2.08,0.32 -2.6934,0.98667 -0.5866,0.64 -0.88,1.52 -0.88,2.69333 v 1.57333 h -3.4666 v 1.78667 h 3.4666 v 12 h 2.1334 v -12 h 3.8933 v -1.78667 h -3.8933 v -1.52 c 0,-0.66666 0.1333,-1.14666 0.4,-1.44 0.2666,-0.32 0.72,-0.45333 1.3066,-0.45333 h 2.3734 v -1.84 z"
     style="font-size:26.6667px;stroke-width:1.00803;stroke-miterlimit:4;stroke-dasharray:none"
     id="path5422" /><path
     d="m -4454.4883,148.23146 -2.1067,0.88 v 3.57333 h -2.7733 v 1.78667 h 2.7733 v 8.77333 c 0,1.04 0.2134,1.81334 0.6667,2.34667 0.48,0.58667 1.3067,0.88 2.4267,0.88 h 2.08 v -1.78667 h -1.76 c -0.48,0 -0.8267,-0.13333 -1.0134,-0.34666 -0.2133,-0.21334 -0.2933,-0.58667 -0.2933,-1.09334 v -8.77333 h 3.4133 v -1.78667 h -3.4133 z"
     style="font-size:26.6667px;stroke-width:1.00803;stroke-miterlimit:4;stroke-dasharray:none"
     id="path5424" /><path
     d="m -4448.6891,147.05813 v 19.41333 h 2.1333 v -7.86667 c 0,-1.28 0.3467,-2.37333 1.0667,-3.22666 0.6933,-0.85334 1.5733,-1.28 2.64,-1.28 1.1466,0 2.0266,0.34666 2.6666,1.04 0.5867,0.69333 0.9067,1.68 0.9067,2.96 v 8.37333 h 2.1333 v -8.69333 c 0,-1.76 -0.4266,-3.12 -1.28,-4.05334 -0.8533,-0.96 -2.1066,-1.41333 -3.7066,-1.41333 -0.9334,0 -1.76,0.21333 -2.5067,0.64 -0.8,0.45333 -1.44,1.12 -1.92,2 v -7.89333 z"
     style="font-size:26.6667px;stroke-width:1.00803;stroke-miterlimit:4;stroke-dasharray:none"
     id="path5426" /><path
     d="m -4427.6854,152.31146 c -2.08,0 -3.7066,0.69333 -4.9333,2.13333 -1.1733,1.36 -1.76,3.06667 -1.76,5.14667 0,2.05333 0.5867,3.76 1.76,5.09333 1.2267,1.44 2.8533,2.16 4.9333,2.16 2.0534,0 3.7067,-0.72 4.96,-2.16 1.1467,-1.33333 1.7334,-3.04 1.7334,-5.09333 0,-2.08 -0.5867,-3.78667 -1.76,-5.14667 -1.2267,-1.44 -2.88,-2.13333 -4.9334,-2.13333 z m 0,1.78667 c 1.44,0 2.5867,0.56 3.44,1.68 0.72,1.01333 1.0934,2.26666 1.0934,3.81333 0,1.49333 -0.3734,2.77333 -1.0934,3.78667 -0.8533,1.12 -2,1.68 -3.44,1.68 -1.4666,0 -2.6133,-0.56 -3.4133,-1.68 -0.7467,-1.01334 -1.0933,-2.26667 -1.0933,-3.78667 0,-1.54667 0.3466,-2.8 1.0933,-3.81333 0.8,-1.12 1.9467,-1.68 3.4133,-1.68 z"
     style="font-size:26.6667px;stroke-width:1.00803;stroke-miterlimit:4;stroke-dasharray:none"
     id="path5428" /><path
     d="m -4413.3404,152.31146 c -1.5466,0 -2.8266,0.34667 -3.7866,1.04 -1.04,0.69333 -1.5467,1.6 -1.5467,2.77333 0,1.17334 0.5067,2.05334 1.5733,2.69334 0.64,0.42666 1.7867,0.82666 3.4134,1.22666 1.4933,0.37334 2.48,0.66667 2.9333,0.88 0.8533,0.42667 1.3067,1.01334 1.3067,1.78667 0,1.54667 -1.2534,2.34667 -3.7067,2.34667 -1.1733,0 -2.0533,-0.21334 -2.64,-0.64 -0.5867,-0.48 -0.9867,-1.25334 -1.1467,-2.34667 h -2.08 c 0.32,3.17333 2.2934,4.77333 5.92,4.77333 3.8934,0 5.84,-1.44 5.84,-4.26666 0,-1.2 -0.56,-2.13334 -1.6533,-2.82667 -0.72,-0.45333 -1.8933,-0.88 -3.5467,-1.28 -1.3866,-0.37333 -2.3466,-0.66667 -2.8533,-0.90667 -0.8,-0.4 -1.1733,-0.90666 -1.1733,-1.49333 0,-0.61333 0.2933,-1.09333 0.88,-1.44 0.5333,-0.37333 1.28,-0.53333 2.24,-0.53333 1.0933,0 1.9466,0.21333 2.5333,0.64 0.5333,0.37333 0.88,1.01333 1.0667,1.86666 h 2.08 c -0.3734,-2.88 -2.24,-4.29333 -5.6534,-4.29333 z"
     style="font-size:26.6667px;stroke-width:1.00803;stroke-miterlimit:4;stroke-dasharray:none"
     id="path5430" /><path
     d="m -4399.0508,152.31146 c -2,0 -3.5733,0.72 -4.7467,2.16 -1.1733,1.36 -1.7333,3.06667 -1.7333,5.09333 0,2.24 0.5867,4 1.8133,5.33334 1.1734,1.28 2.7734,1.94666 4.7467,1.94666 1.7867,0 3.2533,-0.53333 4.4,-1.54666 0.9333,-0.85334 1.5467,-1.92 1.8667,-3.25334 h -2.1334 c -0.3466,0.96 -0.8,1.68 -1.3866,2.16 -0.6934,0.56 -1.6267,0.85334 -2.7467,0.85334 -1.3067,0 -2.3467,-0.42667 -3.0933,-1.28 -0.7467,-0.85334 -1.1467,-2.05334 -1.2534,-3.6 h 10.88 c -0.053,-2.4 -0.5866,-4.29334 -1.6,-5.62667 -1.12,-1.49333 -2.8,-2.24 -5.0133,-2.24 z m 0.053,1.78667 c 2.6134,0 4.08,1.46666 4.3467,4.42666 h -8.6133 c 0.1333,-1.36 0.56,-2.42666 1.3066,-3.22666 0.7467,-0.8 1.7334,-1.2 2.96,-1.2 z"
     style="font-size:26.6667px;stroke-width:1.00803;stroke-miterlimit:4;stroke-dasharray:none"
     id="path5432" /><path
     d="m -4370.8462,147.05813 v 8.16 c -1.0667,-1.94667 -2.5867,-2.90667 -4.56,-2.90667 -1.9733,0 -3.4933,0.72 -4.6133,2.21333 -1.04,1.33334 -1.5467,2.98667 -1.5467,5.01334 0,2.08 0.5067,3.78666 1.5467,5.12 1.12,1.44 2.6933,2.18666 4.72,2.18666 2.08,0 3.6266,-0.88 4.5866,-2.64 v 2.26667 h 2 v -19.41333 z m -4.1067,7.01333 c 1.2267,0 2.24,0.48 3.0134,1.49333 0.7466,0.98667 1.1466,2.29334 1.1466,3.89334 v 0.26666 c 0,1.54667 -0.3466,2.8 -1.0133,3.76 -0.7733,1.06667 -1.84,1.6 -3.2267,1.6 -1.4933,0 -2.6133,-0.56 -3.36,-1.62666 -0.6666,-0.96 -0.9866,-2.26667 -0.9866,-3.92 0,-1.65334 0.32,-2.93334 1.0133,-3.86667 0.7467,-1.06667 1.8933,-1.6 3.4133,-1.6 z"
     style="font-size:26.6667px;stroke-width:1.00803;stroke-miterlimit:4;stroke-dasharray:none"
     id="path5434" /><path
     d="m -4359.4079,152.31146 c -1.6533,0 -2.96,0.32 -3.9733,0.96 -1.12,0.69333 -1.84,1.78667 -2.1333,3.22667 l 2.1066,0.16 c 0.2134,-0.88 0.6667,-1.54667 1.3867,-1.97334 0.64,-0.42666 1.4667,-0.61333 2.48,-0.61333 2.4,0 3.6,1.14667 3.6,3.46667 v 0.72 l -3.3067,0.0533 c -2.08,0.0267 -3.68,0.42667 -4.8,1.17333 -1.28,0.8 -1.8933,1.97334 -1.8933,3.54667 0,1.12 0.4267,2.05333 1.28,2.77333 0.8267,0.69334 1.92,1.04 3.3067,1.04 1.28,0 2.4266,-0.29333 3.44,-0.85333 0.8533,-0.48 1.5733,-1.09333 2.1066,-1.84 v 2.32 h 2 v -8.85333 c 0,-1.6 -0.4266,-2.85334 -1.2266,-3.76 -0.96,-1.04 -2.4,-1.54667 -4.3734,-1.54667 z m 3.4667,7.54667 v 1.17333 c 0,1.06667 -0.5067,2.02667 -1.4933,2.85333 -1.0134,0.85334 -2.16,1.28 -3.4667,1.28 -0.8533,0 -1.5467,-0.21333 -2.08,-0.61333 -0.5333,-0.42667 -0.7733,-0.93333 -0.7733,-1.57333 0,-2 1.5466,-3.01334 4.64,-3.06667 z"
     style="font-size:26.6667px;stroke-width:1.00803;stroke-miterlimit:4;stroke-dasharray:none"
     id="path5436" /><path
     d="m -4352.032,152.68479 5.4666,13.46667 -2.3733,5.6 h 2.32 l 7.5467,-19.06667 h -2.3467 l -4.08,10.88 -4.2133,-10.88 z"
     style="font-size:26.6667px;stroke-width:1.00803;stroke-miterlimit:4;stroke-dasharray:none"
     id="path5438" /><path
     d="m -4332.4029,152.31146 c -1.5467,0 -2.8267,0.34667 -3.7867,1.04 -1.04,0.69333 -1.5466,1.6 -1.5466,2.77333 0,1.17334 0.5066,2.05334 1.5733,2.69334 0.64,0.42666 1.7867,0.82666 3.4133,1.22666 1.4934,0.37334 2.48,0.66667 2.9334,0.88 0.8533,0.42667 1.3066,1.01334 1.3066,1.78667 0,1.54667 -1.2533,2.34667 -3.7066,2.34667 -1.1734,0 -2.0534,-0.21334 -2.64,-0.64 -0.5867,-0.48 -0.9867,-1.25334 -1.1467,-2.34667 h -2.08 c 0.32,3.17333 2.2933,4.77333 5.92,4.77333 3.8933,0 5.84,-1.44 5.84,-4.26666 0,-1.2 -0.56,-2.13334 -1.6533,-2.82667 -0.72,-0.45333 -1.8934,-0.88 -3.5467,-1.28 -1.3867,-0.37333 -2.3467,-0.66667 -2.8533,-0.90667 -0.8,-0.4 -1.1734,-0.90666 -1.1734,-1.49333 0,-0.61333 0.2934,-1.09333 0.88,-1.44 0.5334,-0.37333 1.28,-0.53333 2.24,-0.53333 1.0934,0 1.9467,0.21333 2.5334,0.64 0.5333,0.37333 0.88,1.01333 1.0666,1.86666 h 2.08 c -0.3733,-2.88 -2.24,-4.29333 -5.6533,-4.29333 z"
     style="font-size:26.6667px;stroke-width:1.00803;stroke-miterlimit:4;stroke-dasharray:none"
     id="path5440" /><path
     d="m -4313.0204,163.29813 c -0.48,0 -0.8533,0.16 -1.1466,0.48 -0.32,0.32 -0.48,0.69333 -0.48,1.17333 0,0.45333 0.16,0.82667 0.48,1.14667 0.2933,0.32 0.6666,0.48 1.1466,0.48 0.4267,0 0.8267,-0.16 1.1467,-0.48 0.32,-0.32 0.48,-0.69334 0.48,-1.14667 0,-0.48 -0.16,-0.85333 -0.48,-1.17333 -0.32,-0.32 -0.72,-0.48 -1.1467,-0.48 z"
     style="font-size:26.6667px;stroke-width:1.00803;stroke-miterlimit:4;stroke-dasharray:none"
     id="path5442" /><path
     d="m -4305.9891,163.29813 c -0.48,0 -0.8534,0.16 -1.1467,0.48 -0.32,0.32 -0.48,0.69333 -0.48,1.17333 0,0.45333 0.16,0.82667 0.48,1.14667 0.2933,0.32 0.6667,0.48 1.1467,0.48 0.4266,0 0.8266,-0.16 1.1466,-0.48 0.32,-0.32 0.48,-0.69334 0.48,-1.14667 0,-0.48 -0.16,-0.85333 -0.48,-1.17333 -0.32,-0.32 -0.72,-0.48 -1.1466,-0.48 z"
     style="font-size:26.6667px;stroke-width:1.00803;stroke-miterlimit:4;stroke-dasharray:none"
     id="path5444" /><path
     d="m -4298.9579,163.29813 c -0.48,0 -0.8533,0.16 -1.1466,0.48 -0.32,0.32 -0.48,0.69333 -0.48,1.17333 0,0.45333 0.16,0.82667 0.48,1.14667 0.2933,0.32 0.6666,0.48 1.1466,0.48 0.4267,0 0.8267,-0.16 1.1467,-0.48 0.32,-0.32 0.48,-0.69334 0.48,-1.14667 0,-0.48 -0.16,-0.85333 -0.48,-1.17333 -0.32,-0.32 -0.72,-0.48 -1.1467,-0.48 z"
     style="font-size:26.6667px;stroke-width:1.00803;stroke-miterlimit:4;stroke-dasharray:none"
     id="path5446" /></g></svg>
